<svg width="437" height="44" viewBox="0 0 437 44" fill="none" xmlns="http://www.w3.org/2000/svg">
<path d="M97.2864 43.0123C96.2819 42.7805 95.2773 42.7033 94.3501 42.3942C92.1864 41.6216 90.1001 40.6173 88.0137 39.7675C86.9319 39.3039 85.8501 38.9948 84.7682 38.5313C83.7637 38.0677 82.5273 37.6815 81.9864 36.9089C80.441 34.7456 79.1273 32.3506 77.9682 29.9556C77.5819 29.183 77.7364 27.9469 77.9682 27.097C78.3546 25.7836 78.5864 24.5475 78.5864 23.1569C78.5864 14.8129 82.2955 8.63223 89.5592 4.53753C90.4864 3.99672 91.3364 3.30141 92.0319 2.52882C92.9592 1.4472 93.9637 0.75186 95.3546 0.75186C97.9819 0.75186 100.532 0.674611 103.159 0.906387C104.086 0.983645 104.936 1.83349 105.709 2.45156C106.636 3.14689 107.409 4.07398 108.414 4.61479C115.909 8.94127 119.618 15.2765 119.386 23.8522C119.386 24.702 119.541 25.6291 119.85 26.4017C120.546 27.9469 120.546 29.4148 119.773 30.8827C119.232 31.9643 118.768 33.1232 118.073 34.1275C117.609 34.8229 117.764 35.2092 118.305 35.75C120.159 37.527 122.014 39.4584 123.868 41.2353C124.486 41.8534 124.718 42.317 124.023 43.0123C120.623 43.0123 117.223 43.0123 113.823 43.0123C113.436 42.7032 113.05 42.4715 112.664 42.1625C108.336 37.9132 104.086 33.664 99.8364 29.4148C99.4501 29.0285 99.141 28.3332 99.0637 27.7151C98.9864 26.4017 99.0637 25.011 98.9864 23.6976C98.9864 23.0023 99.2955 22.6933 99.991 22.6933C101.15 22.6933 102.386 22.7705 103.546 22.6933C104.627 22.616 105.477 22.9251 106.173 23.7749C107.255 25.0111 108.414 26.0927 109.727 27.4833C111.427 22.7706 110.964 18.6758 107.873 15.1992C104.627 11.4135 100.377 10.1774 95.5864 11.5681C90.3319 13.036 86.7773 18.1351 87.1637 23.3886C87.6273 29.1058 91.8001 33.5095 97.5182 34.2821C98.2137 34.3593 99.0637 34.6684 99.6046 35.1319C101.768 37.1407 103.855 39.3039 106.018 41.4671C106.559 42.0079 106.791 42.5488 106.173 43.0896C103.236 43.0123 100.3 43.0123 97.2864 43.0123Z" fill="white"/>
<path d="M280.5 43.0124C279.727 42.8578 278.877 42.7033 278.105 42.5488C271.382 41.1582 267.209 36.3681 267.055 29.5694C266.9 21.3027 266.977 13.036 266.977 4.76934C266.977 3.99675 267.209 3.5332 268.136 3.5332C270.686 3.5332 273.314 3.61045 275.864 3.5332C277.1 3.5332 277.023 4.30578 277.023 5.07837C277.023 12.3407 277.023 19.6803 277.023 26.9426C277.023 28.256 277.177 29.5694 277.486 30.8055C278.105 33.2005 279.727 34.2049 282.432 34.1276C284.827 34.0504 286.218 32.8915 286.682 30.4965C286.836 29.5694 286.914 28.6423 286.914 27.6379C286.914 20.1438 286.914 12.6497 286.914 5.15563C286.914 3.91949 287.223 3.45593 288.536 3.45593C290.932 3.53319 293.327 3.53319 295.723 3.45593C296.573 3.45593 296.959 3.76497 296.959 4.69208C296.882 12.8042 297.114 20.9936 296.805 29.1058C296.496 37.0634 292.168 41.5445 284.209 42.7034C283.977 42.7034 283.746 42.8579 283.436 42.9351C282.432 43.0124 281.427 43.0124 280.5 43.0124Z" fill="white"/>
<path d="M138.936 43.0124C138.009 42.8578 137.082 42.6261 136.155 42.4716C129.973 41.0809 125.723 36.2136 125.568 29.9557C125.414 21.6117 125.491 13.1905 125.491 4.84661C125.491 3.84224 125.877 3.61046 126.805 3.61046C129.2 3.68772 131.595 3.68772 133.991 3.61046C135.15 3.61046 135.459 4.07402 135.459 5.15564C135.459 12.4952 135.459 19.912 135.459 27.2516C135.459 28.4878 135.614 29.8011 135.923 30.96C136.541 33.355 138.241 34.3594 141.023 34.2049C143.264 34.0504 144.655 32.8143 145.118 30.4965C145.273 29.4921 145.35 28.4877 145.35 27.5606C145.35 20.1438 145.427 12.727 145.35 5.31014C145.35 3.99674 145.736 3.5332 147.05 3.61046C149.368 3.68772 151.764 3.68772 154.082 3.61046C154.855 3.61046 155.318 3.76498 155.318 4.69208C155.241 13.2678 155.395 21.7662 155.086 30.2647C154.777 37.218 149.986 41.8535 143.032 42.7806C142.723 42.8579 142.414 42.9351 142.027 43.0124C141.023 43.0124 139.941 43.0124 138.936 43.0124Z" fill="white"/>
<path d="M343.786 22.8478C343.786 28.7195 343.786 34.6684 343.786 40.5401C343.786 42.1625 343.709 42.2397 342.086 42.2397C340.155 42.2397 338.145 42.2397 336.214 42.2397C335.209 42.2397 334.823 41.8534 334.823 40.8491C334.823 34.9002 334.823 28.9513 334.823 23.0023C334.823 22.6933 334.9 22.3843 334.823 22.0752C334.745 21.6889 334.745 21.0708 334.359 20.9936C333.973 20.9163 333.586 21.3799 333.355 21.6889C331.655 24.2385 330.032 26.788 328.332 29.3376C327.018 31.3463 325.705 33.4322 324.314 35.441C323.386 36.9089 323.077 36.9089 322.073 35.3637C319.214 30.96 316.355 26.5562 313.495 22.1525C313.341 21.8434 313.109 21.5344 312.877 21.3026C312.723 21.1481 312.336 20.9163 312.259 20.9936C312.027 21.0708 311.795 21.3799 311.795 21.6889C311.718 21.998 311.795 22.3843 311.795 22.6933C311.795 28.5649 311.795 34.5139 311.795 40.3855C311.795 42.0852 311.718 42.1625 310.095 42.1625C308.164 42.1625 306.155 42.1625 304.223 42.1625C303.218 42.1625 302.832 41.8535 302.832 40.7718C302.832 28.7967 302.832 16.7444 302.832 4.76929C302.832 3.76493 303.218 3.45589 304.145 3.53315C306.232 3.61041 308.318 3.61041 310.405 3.53315C311.486 3.45589 312.105 3.91945 312.645 4.76929C315.814 9.71384 319.059 14.5811 322.227 19.5257C323.232 21.1481 323.386 21.1481 324.468 19.4484C327.714 14.5811 330.882 9.63658 334.05 4.69203C334.591 3.84218 335.132 3.45589 336.136 3.53315C338.068 3.61041 340.077 3.53315 342.009 3.53315C343.786 3.53315 343.786 3.53316 343.786 5.23285C343.786 11.1045 343.786 16.9762 343.786 22.8478Z" fill="white"/>
<path d="M232.05 22.925C232.05 28.7967 232.05 34.6684 232.05 40.4628C232.05 42.0852 231.895 42.2397 230.273 42.1625C228.418 42.1625 226.486 42.0852 224.632 42.1625C223.395 42.2397 222.7 41.7762 222.082 40.7718C218.064 34.5911 214.045 28.4104 209.95 22.2297C209.795 21.9207 209.641 21.6117 209.332 21.3799C209.177 21.2254 208.791 20.9936 208.559 21.0709C208.327 21.1481 208.25 21.5344 208.173 21.7662C208.095 22.0752 208.173 22.3842 208.173 22.6933C208.173 28.6422 208.173 34.5911 208.173 40.5401C208.173 42.1625 208.095 42.2397 206.473 42.2397C204.618 42.2397 202.841 42.2397 200.986 42.2397C199.209 42.2397 199.132 42.1625 199.132 40.4628C199.132 30.2646 199.132 20.0665 199.132 9.86836C199.132 8.32319 199.209 6.77801 199.132 5.15558C199.054 3.9967 199.441 3.53314 200.677 3.53314C202.532 3.6104 204.464 3.68766 206.318 3.53314C207.709 3.45588 208.482 3.9967 209.254 5.15558C213.195 11.3363 217.291 17.4397 221.309 23.6204C221.464 23.7749 221.541 24.0067 221.695 24.1612C222.004 24.393 222.236 24.8566 222.623 24.702C223.009 24.6248 223.086 24.0067 223.086 23.6976C223.164 21.3799 223.086 19.1394 223.086 16.8216C223.086 12.8814 223.086 8.94124 223.086 5.00105C223.086 3.91943 223.395 3.53314 224.477 3.53314C226.486 3.6104 228.573 3.6104 230.659 3.53314C231.818 3.45588 232.127 3.99669 232.127 5.07831C232.05 11.0272 232.05 16.9761 232.05 22.925Z" fill="white"/>
<path d="M161.423 42.1625C160.341 42.1625 159.259 42.1625 158.177 42.1625C156.786 42.1625 156.632 41.8535 157.095 40.6173C158.486 37.1407 159.955 33.6641 161.345 30.1102C164.745 21.7662 168.145 13.4223 171.545 5.07832C172.009 3.9967 172.55 3.45589 173.786 3.53315C175.332 3.61041 176.8 3.61041 178.345 3.53315C179.427 3.45589 179.891 3.91945 180.277 4.84655C184.218 14.5812 188.159 24.3158 192.1 33.9731C193.027 36.2136 193.955 38.3768 194.805 40.6173C195.268 41.8535 195.114 42.0853 193.8 42.0853C191.636 42.0853 189.473 42.0853 187.232 42.0853C186.227 42.0853 185.764 41.699 185.377 40.7719C182.673 34.1276 179.968 27.4061 177.264 20.7618C177.109 20.3755 176.955 19.912 176.723 19.603C176.491 19.2167 176.182 18.9077 175.873 18.5214C175.564 18.9077 175.177 19.2167 174.945 19.6802C172.086 26.6335 169.227 33.5868 166.445 40.5401C165.982 41.7762 165.286 42.2398 163.973 42.0853C163.277 42.0853 162.35 42.1625 161.423 42.1625Z" fill="white"/>
<path d="M26.7363 42.008C26.7363 29.183 26.7363 16.4354 26.7363 3.61041C27.7409 3.61041 28.6681 3.61041 29.6727 3.61041C32.8409 3.61041 36.0091 3.61041 39.2545 3.61041C43.0409 3.61041 45.7454 6.31446 45.8227 10.1001C45.8227 11.8771 45.8227 13.6541 45.8227 15.431C45.9 18.0578 44.9727 20.221 42.5772 21.7662C45.2818 22.6933 45.9772 24.6248 45.9 27.1743C45.7454 30.2646 45.9 33.355 45.9 36.3681C45.9 39.4585 44.2772 41.699 41.1863 41.9307C36.3954 42.2398 31.6045 42.008 26.7363 42.008ZM33.15 23.5432C33.15 24.1612 33.15 24.702 33.15 25.1656C33.15 28.6422 33.15 32.1961 33.15 35.6728C33.15 39.0721 33.15 39.0722 36.55 38.9949C38.4045 38.9177 39.1 38.4541 39.1772 36.6772C39.3318 33.2005 39.2545 29.8011 39.2545 26.3245C39.2545 25.7837 39.1772 25.2428 38.9454 24.8565C38.5591 24.3157 38.0181 23.7749 37.4 23.6977C36.0091 23.3886 34.6954 23.5432 33.15 23.5432ZM39.4091 13.5768C39.3318 12.1861 39.2545 10.8727 39.1 9.55932C38.8681 7.85963 38.25 7.31882 36.55 7.24156C35.7772 7.24156 35.0045 7.31882 34.2318 7.24156C33.3818 7.1643 33.0727 7.55061 33.15 8.3232C33.2272 11.1045 33.15 13.9631 33.15 16.7444C33.15 20.221 33.15 20.221 36.6272 20.1438C38.3272 20.0665 38.9454 19.6029 39.1 17.9033C39.3318 16.5126 39.3318 15.0447 39.4091 13.5768Z" fill="white"/>
<path d="M254.459 27.2516C254.459 31.6553 254.459 36.0591 254.459 40.5401C254.459 42.1625 254.382 42.1625 252.759 42.2397C250.595 42.2397 248.509 42.2397 246.345 42.2397C244.491 42.2397 244.491 42.2397 244.491 40.3083C244.491 31.7326 244.491 23.1569 244.491 14.5811C244.491 12.3406 244.491 12.3406 242.173 12.3406C240.859 12.3406 239.545 12.3406 238.232 12.3406C237.227 12.3406 236.686 12.0316 236.764 10.95C236.841 8.94126 236.841 6.85528 236.764 4.84656C236.764 3.99671 237.073 3.61041 237.923 3.61041C245.573 3.61041 253.223 3.61041 260.95 3.61041C261.877 3.61041 262.186 3.99671 262.186 4.84656C262.186 6.85528 262.109 8.94126 262.186 10.95C262.186 11.9544 261.8 12.3406 260.795 12.3406C259.25 12.2634 257.627 12.4179 256.082 12.3406C254.691 12.2634 254.382 12.8042 254.382 14.0403C254.536 18.4441 254.459 22.8478 254.459 27.2516Z" fill="white"/>
<path d="M63.2091 29.8783C65.3727 29.8783 67.4591 29.8783 69.5455 29.8783C69.5455 33.973 69.5455 37.9905 69.5455 42.0852C63.2091 42.0852 56.8727 42.0852 50.4591 42.0852C50.4591 29.2603 50.4591 16.5126 50.4591 3.68768C52.5455 3.68768 54.5546 3.68768 56.7955 3.68768C56.7955 4.22849 56.7955 4.69205 56.7955 5.23286C56.7955 15.5083 56.7955 25.7836 56.7955 36.059C56.7955 36.7544 56.8727 37.5269 57.1818 38.145C57.8 39.4584 59.2682 40.0765 60.7364 39.6902C62.1273 39.3812 63.1318 38.145 63.2091 36.6771C63.2864 34.9002 63.2091 33.1232 63.2091 31.3463C63.2091 30.8827 63.2091 30.4191 63.2091 29.8783Z" fill="white"/>
<path d="M15.6091 3.68768C17.6955 3.68768 19.7045 3.68768 21.8682 3.68768C21.8682 4.07398 21.9455 4.46027 21.9455 4.84656C21.9455 15.0447 21.9455 25.2428 21.9455 35.441C21.9455 38.6858 20.3227 41.0036 17.2318 42.008C13.9864 43.0896 10.5864 43.1668 7.41819 41.8534C4.32728 40.54 2.62728 38.1451 2.70455 34.7457C2.70455 33.5095 2.70455 32.1961 2.70455 30.96C2.70455 30.1101 2.93637 29.8011 3.78637 29.8011C5.25455 29.8784 6.64546 29.8784 8.11364 29.8011C8.88637 29.8011 9.19546 30.1102 9.19546 30.8827C9.11819 32.6597 9.19546 34.4366 9.19546 36.2136C9.19546 38.2996 10.4318 39.6902 12.2091 39.8447C14.0636 39.9993 15.5318 38.6086 15.6864 36.5226C15.7636 35.5183 15.6091 34.4366 15.6091 33.4323C15.6091 23.9295 15.6091 14.4266 15.6091 4.9238C15.5318 4.46025 15.5318 4.07398 15.6091 3.68768Z" fill="white"/>
<path d="M0 3.68768C3.94091 3.68768 7.72727 3.68768 11.7455 3.68768C9.81364 8.09143 7.95909 12.3407 5.87273 17.0534C3.86364 12.4179 1.93182 8.09143 0 3.68768Z" fill="white"/>
<path d="M9.58188 21.998C9.58188 24.084 7.95915 25.7836 5.87279 25.7064C3.78642 25.7064 2.1637 24.0067 2.1637 21.9207C2.1637 19.912 3.78642 18.2896 5.79551 18.2896C7.88188 18.2896 9.58188 19.912 9.58188 21.998Z" fill="white"/>
<path d="M363.723 42.317C356.846 42.317 351.514 37.7587 351.514 31.578C351.514 27.097 354.218 23.9294 358.314 21.9207C354.45 20.0665 352.441 17.1307 352.441 13.1905C352.441 7.55059 357.077 3.14685 363.723 3.14685C370.368 3.14685 375.005 7.55059 375.005 13.1905C375.005 17.1307 373.073 20.0665 369.209 21.9207C373.305 23.8522 375.932 27.0198 375.932 31.578C375.855 37.7587 370.6 42.317 363.723 42.317ZM363.723 23.2341C358.546 23.2341 354.605 26.8652 354.605 31.578C354.605 36.3681 358.546 39.8447 363.723 39.8447C368.9 39.8447 372.841 36.3681 372.841 31.578C372.841 26.8652 368.9 23.2341 363.723 23.2341ZM363.723 5.54187C358.855 5.54187 355.532 8.70947 355.532 13.1905C355.532 17.6715 358.932 20.8391 363.723 20.8391C368.514 20.8391 371.914 17.6715 371.914 13.1905C371.914 8.70947 368.591 5.54187 363.723 5.54187Z" fill="white"/>
<path d="M394.555 42.317C387.986 42.317 383.35 38.0678 383.35 32.0416V13.4222C383.35 7.39607 387.986 3.14685 394.555 3.14685C401.123 3.14685 405.759 7.39607 405.759 13.4222V32.0416C405.759 37.9905 401.123 42.317 394.555 42.317ZM402.746 13.654C402.746 9.09575 399.886 5.54187 394.555 5.54187C389.223 5.54187 386.364 9.09575 386.364 13.654V31.7325C386.364 36.2908 389.223 39.8447 394.555 39.8447C399.886 39.8447 402.746 36.2908 402.746 31.7325V13.654Z" fill="white"/>
<path d="M425.386 42.317C418.818 42.317 414.182 38.0678 414.182 32.0416V13.4222C414.182 7.39607 418.818 3.14685 425.386 3.14685C431.955 3.14685 436.591 7.39607 436.591 13.4222V32.0416C436.668 37.9905 432.032 42.317 425.386 42.317ZM433.577 13.654C433.577 9.09575 430.718 5.54187 425.386 5.54187C420.055 5.54187 417.196 9.09575 417.196 13.654V31.7325C417.196 36.2908 420.055 39.8447 425.386 39.8447C430.718 39.8447 433.577 36.2908 433.577 31.7325V13.654Z" fill="white"/>
</svg>
