<svg width="424" height="43" viewBox="0 0 424 43" fill="none" xmlns="http://www.w3.org/2000/svg">
<path d="M97.441 42.4584C96.4364 42.2266 95.4319 42.1494 94.5046 41.8403C92.341 41.0677 90.2546 40.0634 88.091 39.2135C87.0092 38.75 85.9273 38.4409 84.8455 37.9774C83.841 37.5138 82.6046 37.1275 81.9864 36.355C80.441 34.1917 79.1273 31.7967 77.9682 29.4017C77.5819 28.6291 77.7364 27.3929 77.9682 26.5431C78.3546 25.2297 78.5864 23.9936 78.5864 22.6029C78.5864 14.259 82.2955 8.0783 89.6364 3.9836C90.5637 3.44279 91.4137 2.74745 92.1091 1.97487C93.0364 0.893247 94.041 0.197905 95.4319 0.197905C98.0592 0.197905 100.686 0.120656 103.236 0.352432C104.164 0.42969 105.014 1.27954 105.786 1.8976C106.714 2.59293 107.486 3.52003 108.491 4.06084C115.986 8.38732 119.696 14.7225 119.464 23.3755C119.464 24.2253 119.618 25.1525 119.927 25.925C120.623 27.4702 120.623 28.9381 119.85 30.406C119.309 31.4877 118.846 32.6465 118.15 33.6509C117.686 34.3462 117.841 34.7325 118.382 35.2733C120.236 37.0503 122.091 38.9817 123.946 40.7587C124.564 41.3768 124.796 41.8403 124.1 42.5357C120.7 42.5357 117.3 42.5357 113.9 42.5357C113.514 42.2266 113.127 41.9948 112.741 41.6858C108.414 37.4366 104.164 33.1873 99.8364 28.8609C99.4501 28.4746 99.141 27.7793 99.0637 27.1612C98.9864 25.8478 99.0637 24.4571 98.9864 23.1437C98.9864 22.4484 99.2955 22.1394 99.991 22.1394C101.15 22.1394 102.386 22.2166 103.546 22.1394C104.627 22.0621 105.477 22.4484 106.173 23.221C107.255 24.4571 108.414 25.5387 109.727 26.9294C111.427 22.2166 110.964 18.1219 107.873 14.6453C104.627 10.8596 100.377 9.62346 95.5864 11.0141C90.3319 12.5593 86.7773 17.6584 87.1637 22.8347C87.6273 28.5518 91.8001 32.9556 97.5182 33.8054C98.2137 33.8827 99.0637 34.1917 99.6046 34.6553C101.768 36.664 103.855 38.8272 106.018 40.9905C106.559 41.5313 106.791 42.0721 106.173 42.6129C103.391 42.4584 100.377 42.4584 97.441 42.4584Z" fill="white"/>
<path d="M280.809 42.4584C280.036 42.3039 279.186 42.1493 278.414 41.9948C271.691 40.6042 267.518 35.8141 267.364 29.0154C267.209 20.7487 267.286 12.4048 267.286 4.13808C267.286 3.3655 267.518 2.90194 268.445 2.90194C270.995 2.90194 273.623 2.9792 276.173 2.90194C277.409 2.90194 277.332 3.67453 277.332 4.44711C277.332 11.7094 277.332 19.049 277.332 26.3113C277.332 27.6247 277.486 28.9381 277.796 30.1743C278.414 32.5693 280.036 33.5736 282.741 33.4964C285.136 33.4191 286.527 32.2602 286.991 29.8652C287.146 28.9381 287.223 28.011 287.223 27.0066C287.223 19.5126 287.223 12.0185 287.223 4.44711C287.223 3.21097 287.532 2.74744 288.845 2.74744C291.241 2.8247 293.636 2.8247 296.032 2.74744C296.882 2.74744 297.268 3.05648 297.268 3.98358C297.191 12.173 297.423 20.2851 297.114 28.4746C296.805 36.4322 292.477 40.9132 284.518 42.0721C284.286 42.0721 284.055 42.2266 283.746 42.3038C282.741 42.4584 281.736 42.4584 280.809 42.4584Z" fill="white"/>
<path d="M139.091 42.4584C138.164 42.3039 137.236 42.0721 136.309 41.9176C130.127 40.527 125.877 35.6597 125.723 29.4017C125.568 21.0578 125.645 12.6366 125.645 4.29265C125.645 3.28829 126.032 3.05651 126.959 3.05651C129.355 3.13377 131.75 3.13377 134.145 3.05651C135.305 3.05651 135.614 3.52006 135.614 4.60168C135.614 11.9413 135.614 19.3581 135.614 26.6977C135.614 27.9338 135.768 29.2472 136.077 30.4061C136.695 32.8011 138.395 33.8055 141.177 33.651C143.418 33.4964 144.809 32.2603 145.273 29.9425C145.427 28.9382 145.505 27.9338 145.505 27.0067C145.505 19.5899 145.582 12.173 145.505 4.75621C145.505 3.44281 145.891 2.97925 147.205 3.05651C149.523 3.13377 151.918 3.13377 154.236 3.05651C155.009 3.05651 155.473 3.21102 155.473 4.13813C155.395 12.7138 155.55 21.2123 155.241 29.788C154.932 36.7413 150.141 41.3768 143.109 42.3039C142.8 42.3812 142.491 42.4584 142.105 42.5357C141.177 42.4584 140.095 42.4584 139.091 42.4584Z" fill="white"/>
<path d="M344.173 22.2166C344.173 28.0883 344.173 34.0372 344.173 39.9088C344.173 41.5313 344.095 41.6085 342.473 41.6085C340.541 41.6085 338.532 41.6085 336.6 41.6085C335.595 41.6085 335.209 41.2222 335.209 40.2179C335.209 34.269 335.209 28.32 335.209 22.3711C335.209 22.0621 335.286 21.7531 335.209 21.444C335.132 21.0577 335.132 20.4397 334.745 20.3624C334.359 20.2851 333.973 20.7487 333.741 21.0577C332.041 23.6073 330.418 26.1568 328.718 28.7063C327.404 30.7151 326.091 32.801 324.7 34.8098C323.773 36.2777 323.464 36.2777 322.459 34.7325C319.6 30.3288 316.741 25.925 313.805 21.5213C313.65 21.2122 313.418 20.9032 313.186 20.6714C313.032 20.5169 312.645 20.2851 312.568 20.3624C312.336 20.4397 312.105 20.7487 312.105 21.0577C312.027 21.3668 312.105 21.7531 312.105 22.0621C312.105 27.9338 312.105 33.8827 312.105 39.7543C312.105 41.454 312.027 41.5313 310.405 41.5313C308.473 41.5313 306.464 41.5313 304.532 41.5313C303.527 41.5313 303.141 41.2222 303.141 40.1406C303.141 28.0883 303.141 16.1132 303.141 4.06083C303.141 3.05647 303.527 2.74745 304.455 2.82471C306.541 2.90197 308.627 2.90197 310.714 2.82471C311.795 2.74745 312.414 3.21099 312.955 4.06083C316.123 9.00538 319.368 13.8727 322.536 18.8172C323.541 20.4397 323.695 20.4397 324.777 18.74C328.023 13.7954 331.191 8.92814 334.359 3.98359C334.9 3.13375 335.441 2.74745 336.445 2.82471C338.377 2.90197 340.386 2.82471 342.318 2.82471C344.095 2.82471 344.095 2.8247 344.095 4.52439C344.173 10.5506 344.173 16.4222 344.173 22.2166Z" fill="white"/>
<path d="M232.282 22.2939C232.282 28.1655 232.282 34.0372 232.282 39.9088C232.282 41.5313 232.127 41.6858 230.505 41.6085C228.65 41.6085 226.718 41.5313 224.864 41.6085C223.627 41.6858 222.932 41.2222 222.314 40.2179C218.296 34.0372 214.277 27.8565 210.182 21.6758C210.027 21.3668 209.873 21.0577 209.564 20.8259C209.332 20.6714 209.023 20.4397 208.791 20.5169C208.559 20.5942 208.482 20.9805 208.405 21.2122C208.327 21.5213 208.405 21.8303 208.405 22.1394C208.405 28.0883 208.405 34.0372 208.405 39.9861C208.405 41.6085 208.327 41.6858 206.705 41.6858C204.85 41.6858 203.073 41.6858 201.218 41.6858C199.441 41.6858 199.364 41.6085 199.364 39.9088C199.364 29.7107 199.364 19.5126 199.364 9.31441C199.364 7.76923 199.441 6.22406 199.364 4.60162C199.286 3.44274 199.673 2.97919 200.909 2.97919C202.764 3.05644 204.696 3.1337 206.55 2.97919C207.941 2.90193 208.714 3.44274 209.486 4.60162C213.427 10.7823 217.523 16.8857 221.541 23.0664C221.696 23.221 221.773 23.4527 221.927 23.6073C222.236 23.839 222.468 24.3026 222.855 24.1481C223.241 24.0708 223.318 23.4527 223.318 23.1437C223.396 20.8259 223.318 18.5082 223.318 16.2677C223.318 12.3275 223.318 8.38729 223.318 4.4471C223.318 3.36547 223.627 2.97919 224.709 2.97919C226.795 3.05644 228.805 3.05644 230.891 2.97919C232.05 2.90193 232.359 3.44274 232.359 4.52436C232.282 10.396 232.282 16.3449 232.282 22.2939Z" fill="white"/>
<path d="M161.577 41.6086C160.495 41.6086 159.414 41.6086 158.332 41.6086C156.941 41.6086 156.786 41.2995 157.25 40.0634C158.641 36.5868 160.109 33.0329 161.5 29.5562C164.9 21.2123 168.3 12.8684 171.7 4.44716C172.164 3.36553 172.705 2.82472 173.941 2.90198C175.486 2.97924 177.032 2.97924 178.5 2.90198C179.582 2.82472 180.045 3.28829 180.432 4.21539C184.373 13.95 188.314 23.6846 192.255 33.4192C193.182 35.6597 194.109 37.8229 194.959 40.0634C195.423 41.2995 195.268 41.5313 193.955 41.5313C191.791 41.5313 189.627 41.5313 187.386 41.5313C186.382 41.5313 185.918 41.145 185.532 40.2179C182.827 33.5737 180.123 26.8522 177.418 20.2079C177.264 19.8217 177.109 19.3581 176.877 18.9718C176.645 18.5855 176.336 18.2765 176.027 17.8902C175.718 18.2765 175.332 18.5855 175.1 19.0491C172.241 26.0023 169.382 32.9556 166.6 39.9089C166.136 41.145 165.441 41.6086 164.127 41.4541C163.432 41.5313 162.505 41.6086 161.577 41.6086Z" fill="white"/>
<path d="M26.8136 41.4541C26.8136 28.6291 26.8136 15.8814 26.8136 2.97925C27.8181 2.97925 28.8227 2.97925 29.75 2.97925C32.9181 2.97925 36.0863 2.97925 39.3318 2.97925C43.1181 2.97925 45.8227 5.6833 45.9 9.46897C45.9 11.2459 45.9 13.0229 45.9 14.7998C45.9772 17.5039 45.05 19.6671 42.6545 21.2123C45.3591 22.1394 46.0545 24.0709 45.9772 26.6204C45.8227 29.7108 45.9772 32.8011 45.9772 35.8915C45.9772 38.9818 44.3545 41.2223 41.2636 41.4541C36.3954 41.6859 31.6818 41.4541 26.8136 41.4541ZM33.15 22.912C33.15 23.5301 33.15 24.0709 33.15 24.5344C33.15 28.0111 33.15 31.565 33.15 35.0416C33.15 38.441 33.15 38.441 36.6272 38.3637C38.4818 38.2865 39.1772 37.8229 39.2545 36.046C39.4091 32.5693 39.3318 29.1699 39.3318 25.6933C39.3318 25.1525 39.2545 24.6117 39.0227 24.2254C38.6363 23.6846 38.0954 23.1438 37.4772 23.0665C36.0863 22.8347 34.6954 22.912 33.15 22.912ZM39.4863 13.0229C39.4091 11.6322 39.3318 10.3188 39.1772 9.00544C38.9454 7.30575 38.3272 6.76494 36.6272 6.68768C35.8545 6.68768 35.0818 6.76494 34.3091 6.68768C33.4591 6.61042 33.15 6.99671 33.2272 7.7693C33.3045 10.5506 33.2272 13.4092 33.2272 16.1905C33.2272 19.6671 33.2272 19.6671 36.7818 19.5899C38.4818 19.5126 39.1 19.0491 39.2545 17.3494C39.3318 15.8815 39.4091 14.4135 39.4863 13.0229Z" fill="white"/>
<path d="M254.691 26.6976C254.691 31.1014 254.691 35.5823 254.691 39.9861C254.691 41.6085 254.614 41.6085 252.991 41.6858C250.827 41.6858 248.741 41.6858 246.577 41.6858C244.723 41.6858 244.723 41.6858 244.723 39.7543C244.723 31.1786 244.723 22.6029 244.723 14.0272C244.723 11.7867 244.723 11.7867 242.405 11.7867C241.091 11.7867 239.777 11.7867 238.464 11.7867C237.459 11.7867 236.918 11.4777 236.995 10.396C237.073 8.38731 237.073 6.30133 236.995 4.2926C236.995 3.44276 237.305 3.05646 238.155 3.05646C245.805 3.05646 253.532 3.05646 261.182 3.05646C262.109 3.05646 262.418 3.44276 262.418 4.2926C262.418 6.30133 262.341 8.38731 262.418 10.396C262.418 11.4004 262.032 11.7867 261.027 11.7867C259.482 11.7094 257.859 11.8639 256.314 11.7867C254.923 11.7094 254.614 12.2502 254.614 13.4864C254.768 17.8129 254.691 22.2939 254.691 26.6976Z" fill="white"/>
<path d="M63.2864 29.2472C65.5273 29.2472 67.5364 29.2472 69.6227 29.2472C69.6227 33.3419 69.6227 37.3593 69.6227 41.454C63.2864 41.454 56.95 41.454 50.4591 41.454C50.4591 28.6291 50.4591 15.8814 50.4591 3.05646C52.5455 3.05646 54.5546 3.05646 56.7955 3.05646C56.7955 3.59727 56.7955 4.06082 56.7955 4.60163C56.7955 14.877 56.7955 25.1524 56.7955 35.4278C56.7955 36.1232 56.8727 36.8958 57.1818 37.5911C57.8 38.9045 59.2682 39.5226 60.7364 39.1363C62.1273 38.8272 63.1318 37.5911 63.2091 36.1232C63.2864 34.3462 63.2091 32.5693 63.2091 30.7923C63.2864 30.2515 63.2864 29.788 63.2864 29.2472Z" fill="white"/>
<path d="M15.6091 3.05646C17.6955 3.05646 19.7046 3.05646 21.8682 3.05646C21.8682 3.44275 21.9455 3.82904 21.9455 4.21534C21.9455 14.4135 21.9455 24.6116 21.9455 34.8098C21.9455 38.0546 20.3227 40.3724 17.2318 41.3768C13.9091 42.4584 10.5864 42.5356 7.34092 41.2222C4.25001 39.9088 2.55001 37.5138 2.62728 34.1145C2.62728 32.8783 2.62728 31.5649 2.62728 30.3288C2.62728 29.4789 2.8591 29.1699 3.7091 29.1699C5.17728 29.2471 6.56819 29.2471 8.03637 29.1699C8.8091 29.1699 9.11819 29.4789 9.11819 30.2515C9.04092 32.0285 9.11819 33.8054 9.11819 35.5824C9.11819 37.6684 10.3546 39.059 12.1318 39.2135C13.9864 39.368 15.4546 37.9774 15.6091 35.8914C15.6864 34.887 15.5318 33.8054 15.5318 32.8011C15.5318 23.2982 15.5318 13.7954 15.5318 4.2926C15.5318 3.90631 15.6091 3.52001 15.6091 3.05646Z" fill="white"/>
<path d="M0 3.05646C3.94091 3.05646 7.80455 3.05646 11.7455 3.05646C9.81364 7.4602 7.95909 11.7867 5.87273 16.4222C3.86364 11.7867 1.93182 7.53745 0 3.05646Z" fill="white"/>
<path d="M9.58188 21.3668C9.58188 23.4528 7.95915 25.1525 5.87279 25.0752C3.78642 25.0752 2.1637 23.3755 2.1637 21.2895C2.1637 19.2808 3.78642 17.6584 5.79551 17.6584C7.88188 17.6584 9.58188 19.2808 9.58188 21.3668Z" fill="white"/>
<path d="M351.359 38.9045H356.923V5.52873H351.359V2.90192H359.473V38.9045H365.036V41.5312H351.282V38.9045H351.359Z" fill="white"/>
<path d="M368.359 17.5811C368.359 -2.66069 393.705 -2.58343 393.705 17.5811V26.7749C393.705 46.9394 368.359 47.0166 368.359 26.7749V17.5811ZM370.909 26.7749C370.909 43.3082 391.232 43.231 391.232 26.7749V17.5811C391.232 1.12499 370.909 1.12499 370.909 17.5811V26.7749Z" fill="white"/>
<path d="M398.418 17.5811C398.418 -2.66069 423.764 -2.58343 423.764 17.5811V26.7749C423.764 46.9394 398.418 47.0166 398.418 26.7749V17.5811ZM400.891 26.7749C400.891 43.3082 421.214 43.231 421.214 26.7749V17.5811C421.214 1.12499 400.891 1.12499 400.891 17.5811V26.7749Z" fill="white"/>
</svg>
