<svg width="437" height="43" viewBox="0 0 437 43" fill="none" xmlns="http://www.w3.org/2000/svg">
<path d="M97.2864 42.6428C96.2819 42.411 95.2773 42.3337 94.3501 42.0247C92.1864 41.2521 90.1001 40.2477 88.0137 39.3979C86.9319 38.9343 85.8501 38.6253 84.7682 38.1618C83.7637 37.6982 82.5273 37.3119 81.9864 36.5393C80.441 34.3761 79.1273 31.9811 77.9682 29.586C77.5819 28.8134 77.7364 27.5773 77.9682 26.7275C78.3546 25.4141 78.5864 24.1779 78.5864 22.7873C78.5864 14.4433 82.2955 8.26263 89.5592 4.16792C90.4864 3.62711 91.3364 2.93178 92.0319 2.15919C92.9592 1.07757 93.9637 0.382235 95.3546 0.382235C97.9819 0.382235 100.532 0.304974 103.159 0.53675C104.086 0.614009 104.936 1.46385 105.709 2.08192C106.636 2.77725 107.409 3.70436 108.414 4.24517C115.909 8.57166 119.618 14.9069 119.386 23.4826C119.386 24.3324 119.541 25.2595 119.85 26.0321C120.546 27.5773 120.546 29.0452 119.773 30.5131C119.232 31.5948 118.768 32.7536 118.073 33.758C117.609 34.4533 117.764 34.8396 118.305 35.3804C120.159 37.1574 122.014 39.0889 123.868 40.8658C124.486 41.4839 124.718 41.9474 124.023 42.6428C120.623 42.6428 117.223 42.6428 113.823 42.6428C113.436 42.3337 113.05 42.1019 112.664 41.7929C108.336 37.5437 104.086 33.2944 99.8364 29.0452C99.4501 28.6589 99.141 27.9636 99.0637 27.3455C98.9864 26.0321 99.0637 24.6415 98.9864 23.3281C98.9864 22.6327 99.2955 22.3237 99.991 22.3237C101.15 22.3237 102.386 22.401 103.546 22.3237C104.627 22.2465 105.477 22.5555 106.173 23.4053C107.255 24.6415 108.414 25.7231 109.727 27.1137C111.427 22.401 110.964 18.3063 107.873 14.8296C104.627 11.0439 100.377 9.80781 95.5864 11.1985C90.3319 12.6664 86.7773 17.7654 87.1637 23.019C87.6273 28.7362 91.8001 33.1399 97.5182 33.9125C98.2137 33.9898 99.0637 34.2988 99.6046 34.7624C101.768 36.7711 103.855 38.9343 106.018 41.0976C106.559 41.6384 106.791 42.1792 106.173 42.72C103.236 42.6428 100.3 42.6428 97.2864 42.6428Z" fill="white"/>
<path d="M280.5 42.6427C279.727 42.4882 278.877 42.3336 278.105 42.1791C271.382 40.7885 267.209 35.9984 267.055 29.1997C266.9 20.933 266.977 12.6663 266.977 4.39964C266.977 3.62705 267.209 3.16351 268.136 3.16351C270.686 3.16351 273.314 3.24076 275.864 3.16351C277.1 3.16351 277.023 3.93609 277.023 4.70868C277.023 11.971 277.023 19.3106 277.023 26.5729C277.023 27.8863 277.177 29.1997 277.486 30.4358C278.105 32.8308 279.727 33.8352 282.432 33.7579C284.827 33.6807 286.218 32.5218 286.682 30.1268C286.836 29.1997 286.914 28.2726 286.914 27.2682C286.914 19.7741 286.914 12.28 286.914 4.78593C286.914 3.54979 287.223 3.08624 288.536 3.08624C290.932 3.1635 293.327 3.1635 295.723 3.08624C296.573 3.08624 296.959 3.39528 296.959 4.32239C296.882 12.4345 297.114 20.624 296.805 28.7361C296.496 36.6938 292.168 41.1748 284.209 42.3337C283.977 42.3337 283.746 42.4882 283.436 42.5654C282.432 42.6427 281.427 42.6427 280.5 42.6427Z" fill="white"/>
<path d="M138.936 42.6428C138.009 42.4883 137.082 42.2565 136.155 42.102C129.973 40.7113 125.723 35.844 125.568 29.5861C125.414 21.2421 125.491 12.8209 125.491 4.47698C125.491 3.47262 125.877 3.24083 126.805 3.24083C129.2 3.31809 131.595 3.31809 133.991 3.24083C135.15 3.24083 135.459 3.70439 135.459 4.78601C135.459 12.1256 135.459 19.5424 135.459 26.882C135.459 28.1181 135.614 29.4315 135.923 30.5904C136.541 32.9854 138.241 33.9898 141.023 33.8353C143.264 33.6808 144.655 32.4446 145.118 30.1269C145.273 29.1225 145.35 28.1181 145.35 27.191C145.35 19.7742 145.427 12.3574 145.35 4.94054C145.35 3.62714 145.736 3.16358 147.05 3.24083C149.368 3.31809 151.764 3.31809 154.082 3.24083C154.855 3.24083 155.318 3.39536 155.318 4.32246C155.241 12.8982 155.395 21.3966 155.086 29.8951C154.777 36.8484 149.986 41.4839 143.032 42.411C142.723 42.4883 142.414 42.5655 142.027 42.6428C141.023 42.6428 139.941 42.6428 138.936 42.6428Z" fill="white"/>
<path d="M343.786 22.4782C343.786 28.3499 343.786 34.2988 343.786 40.1705C343.786 41.7929 343.709 41.8702 342.086 41.8702C340.155 41.8702 338.145 41.8702 336.214 41.8702C335.209 41.8702 334.823 41.4839 334.823 40.4795C334.823 34.5306 334.823 28.5817 334.823 22.6328C334.823 22.3237 334.9 22.0147 334.823 21.7056C334.745 21.3194 334.745 20.7013 334.359 20.624C333.973 20.5468 333.586 21.0103 333.355 21.3194C331.655 23.8689 330.032 26.4184 328.332 28.968C327.018 30.9767 325.705 33.0627 324.314 35.0714C323.386 36.5393 323.077 36.5393 322.073 34.9941C319.214 30.5904 316.355 26.1867 313.495 21.7829C313.341 21.4739 313.109 21.1648 312.877 20.9331C312.723 20.7785 312.336 20.5468 312.259 20.624C312.027 20.7013 311.795 21.0103 311.795 21.3194C311.718 21.6284 311.795 22.0147 311.795 22.3237C311.795 28.1954 311.795 34.1443 311.795 40.016C311.795 41.7157 311.718 41.7929 310.095 41.7929C308.164 41.7929 306.155 41.7929 304.223 41.7929C303.218 41.7929 302.832 41.4839 302.832 40.4023C302.832 28.4272 302.832 16.3748 302.832 4.39971C302.832 3.39535 303.218 3.08632 304.145 3.16358C306.232 3.24084 308.318 3.24084 310.405 3.16358C311.486 3.08632 312.105 3.54987 312.645 4.39971C315.814 9.34427 319.059 14.2116 322.227 19.1561C323.232 20.7786 323.386 20.7785 324.468 19.0789C327.714 14.2116 330.882 9.26701 334.05 4.32246C334.591 3.47261 335.132 3.08632 336.136 3.16358C338.068 3.24084 340.077 3.16358 342.009 3.16358C343.786 3.16358 343.786 3.16358 343.786 4.86327C343.786 10.7349 343.786 16.6066 343.786 22.4782Z" fill="white"/>
<path d="M232.05 22.5554C232.05 28.4271 232.05 34.2988 232.05 40.0932C232.05 41.7156 231.895 41.8701 230.273 41.7928C228.418 41.7928 226.486 41.7156 224.632 41.7928C223.395 41.8701 222.7 41.4066 222.082 40.4022C218.064 34.2215 214.045 28.0408 209.95 21.8601C209.795 21.5511 209.641 21.242 209.332 21.0103C209.177 20.8557 208.791 20.624 208.559 20.7012C208.327 20.7785 208.25 21.1648 208.173 21.3966C208.095 21.7056 208.173 22.0146 208.173 22.3237C208.173 28.2726 208.173 34.2215 208.173 40.1704C208.173 41.7929 208.095 41.8701 206.473 41.8701C204.618 41.8701 202.841 41.8701 200.986 41.8701C199.209 41.8701 199.132 41.7929 199.132 40.0932C199.132 29.895 199.132 19.6969 199.132 9.49872C199.132 7.95355 199.209 6.40837 199.132 4.78594C199.054 3.62706 199.441 3.16351 200.677 3.16351C202.532 3.24077 204.464 3.31803 206.318 3.16351C207.709 3.08625 208.482 3.62706 209.254 4.78594C213.195 10.9666 217.291 17.0701 221.309 23.2508C221.464 23.4053 221.541 23.6371 221.695 23.7916C222.004 24.0234 222.236 24.4869 222.623 24.3324C223.009 24.2551 223.086 23.6371 223.086 23.328C223.164 21.0103 223.086 18.7698 223.086 16.452C223.086 12.5118 223.086 8.57161 223.086 4.63142C223.086 3.5498 223.395 3.16351 224.477 3.16351C226.486 3.24077 228.573 3.24077 230.659 3.16351C231.818 3.08625 232.127 3.62706 232.127 4.70869C232.05 10.6576 232.05 16.6065 232.05 22.5554Z" fill="white"/>
<path d="M161.423 41.7929C160.341 41.7929 159.259 41.7929 158.177 41.7929C156.786 41.7929 156.632 41.4839 157.095 40.2477C158.486 36.7711 159.955 33.2945 161.345 29.7406C164.745 21.3966 168.145 13.0527 171.545 4.70875C172.009 3.62713 172.55 3.08632 173.786 3.16358C175.332 3.24084 176.8 3.24084 178.345 3.16358C179.427 3.08632 179.891 3.54987 180.277 4.47698C184.218 14.2116 188.159 23.9462 192.1 33.6035C193.027 35.844 193.955 38.0072 194.805 40.2477C195.268 41.4839 195.114 41.7157 193.8 41.7157C191.636 41.7157 189.473 41.7157 187.232 41.7157C186.227 41.7157 185.764 41.3294 185.377 40.4023C182.673 33.758 179.968 27.0365 177.264 20.3923C177.109 20.006 176.955 19.5424 176.723 19.2334C176.491 18.8471 176.182 18.5381 175.873 18.1518C175.564 18.5381 175.177 18.8471 174.945 19.3107C172.086 26.2639 169.227 33.2172 166.445 40.1705C165.982 41.4066 165.286 41.8702 163.973 41.7157C163.277 41.7157 162.35 41.7929 161.423 41.7929Z" fill="white"/>
<path d="M26.7363 41.6384C26.7363 28.8134 26.7363 16.0657 26.7363 3.24078C27.7409 3.24078 28.6681 3.24078 29.6727 3.24078C32.8409 3.24078 36.0091 3.24078 39.2545 3.24078C43.0409 3.24078 45.7454 5.94483 45.8227 9.73051C45.8227 11.5075 45.8227 13.2844 45.8227 15.0614C45.9 17.6882 44.9727 19.8514 42.5772 21.3966C45.2818 22.3237 45.9772 24.2552 45.9 26.8047C45.7454 29.895 45.9 32.9854 45.9 35.9985C45.9 39.0888 44.2772 41.3293 41.1863 41.5611C36.3954 41.8702 31.6045 41.6384 26.7363 41.6384ZM33.15 23.0963C33.15 23.7144 33.15 24.2552 33.15 24.7187C33.15 28.1954 33.15 31.7492 33.15 35.2259C33.15 38.6253 33.15 38.6253 36.55 38.548C38.4045 38.4708 39.1 38.0072 39.1772 36.2303C39.3318 32.7536 39.2545 29.3542 39.2545 25.8776C39.2545 25.3368 39.1772 24.796 38.9454 24.4097C38.5591 23.8689 38.0181 23.328 37.4 23.2508C36.0091 23.019 34.6954 23.0963 33.15 23.0963ZM39.4091 13.2072C39.3318 11.8165 39.2545 10.5031 39.1 9.18971C38.8681 7.49002 38.25 6.94921 36.55 6.87195C35.7772 6.87195 35.0045 6.94921 34.2318 6.87195C33.3818 6.79469 33.0727 7.18098 33.15 7.95357C33.2272 10.7349 33.15 13.5935 33.15 16.3748C33.15 19.8514 33.15 19.8514 36.6272 19.7741C38.3272 19.6969 38.9454 19.2333 39.1 17.5336C39.3318 16.143 39.3318 14.6751 39.4091 13.2072Z" fill="white"/>
<path d="M254.459 26.882C254.459 31.2857 254.459 35.6895 254.459 40.1705C254.459 41.7929 254.382 41.7929 252.759 41.8701C250.595 41.8701 248.509 41.8701 246.345 41.8701C244.491 41.8701 244.491 41.8701 244.491 39.9387C244.491 31.363 244.491 22.7872 244.491 14.2115C244.491 11.971 244.491 11.971 242.173 11.971C240.859 11.971 239.545 11.971 238.232 11.971C237.227 11.971 236.686 11.662 236.764 10.5804C236.841 8.57163 236.841 6.48565 236.764 4.47693C236.764 3.62708 237.073 3.24078 237.923 3.24078C245.573 3.24078 253.223 3.24078 260.95 3.24078C261.877 3.24078 262.186 3.62708 262.186 4.47693C262.186 6.48565 262.109 8.57163 262.186 10.5804C262.186 11.5847 261.8 11.971 260.795 11.971C259.25 11.8938 257.627 12.0483 256.082 11.971C254.691 11.8938 254.382 12.4346 254.382 13.6707C254.536 18.0745 254.459 22.4782 254.459 26.882Z" fill="white"/>
<path d="M63.2091 29.5088C65.3727 29.5088 67.4591 29.5088 69.5455 29.5088C69.5455 33.6035 69.5455 37.621 69.5455 41.7157C63.2091 41.7157 56.8727 41.7157 50.4591 41.7157C50.4591 28.8907 50.4591 16.1431 50.4591 3.31812C52.5455 3.31812 54.5546 3.31812 56.7955 3.31812C56.7955 3.85893 56.7955 4.32248 56.7955 4.86329C56.7955 15.1387 56.7955 25.4141 56.7955 35.6895C56.7955 36.3848 56.8727 37.1574 57.1818 37.7755C57.8 39.0889 59.2682 39.707 60.7364 39.3207C62.1273 39.0116 63.1318 37.7755 63.2091 36.3076C63.2864 34.5306 63.2091 32.7537 63.2091 30.9767C63.2091 30.5132 63.2091 30.0496 63.2091 29.5088Z" fill="white"/>
<path d="M15.6091 3.31812C17.6955 3.31812 19.7045 3.31812 21.8682 3.31812C21.8682 3.70441 21.9455 4.0907 21.9455 4.477C21.9455 14.6751 21.9455 24.8733 21.9455 35.0714C21.9455 38.3163 20.3227 40.6341 17.2318 41.6384C13.9864 42.72 10.5864 42.7973 7.41819 41.4839C4.32728 40.1705 2.62728 37.7755 2.70455 34.3761C2.70455 33.14 2.70455 31.8266 2.70455 30.5904C2.70455 29.7406 2.93637 29.4315 3.78637 29.4315C5.25455 29.5088 6.64546 29.5088 8.11364 29.4315C8.88637 29.4315 9.19546 29.7406 9.19546 30.5132C9.11819 32.2901 9.19546 34.0671 9.19546 35.844C9.19546 37.93 10.4318 39.3206 12.2091 39.4752C14.0636 39.6297 15.5318 38.239 15.6864 36.153C15.7636 35.1487 15.6091 34.0671 15.6091 33.0627C15.6091 23.5599 15.6091 14.0571 15.6091 4.55426C15.5318 4.09071 15.5318 3.70441 15.6091 3.31812Z" fill="white"/>
<path d="M0 3.31812C3.94091 3.31812 7.72727 3.31812 11.7455 3.31812C9.81364 7.72186 7.95909 11.9711 5.87273 16.6839C3.86364 12.0483 1.93182 7.72186 0 3.31812Z" fill="white"/>
<path d="M9.58188 21.6284C9.58188 23.7143 7.95915 25.414 5.87279 25.3368C3.78642 25.3368 2.1637 23.6371 2.1637 21.5511C2.1637 19.5424 3.78642 17.9199 5.79551 17.9199C7.88188 17.9199 9.58188 19.5424 9.58188 21.6284Z" fill="white"/>
<path d="M352.595 41.5611V39.1661L369.75 18.9244C371.45 16.9929 372.145 15.1387 372.145 12.8982C372.145 8.3399 369.132 5.24956 363.955 5.24956C359.55 5.24956 355.764 7.49006 355.764 12.8982H352.673C352.673 7.18102 356.923 2.77728 363.955 2.77728C370.832 2.77728 375.236 6.79473 375.236 12.8982C375.236 15.7567 374.464 17.7655 372.3 20.315L356.227 39.1661H375.159V41.5611H352.595Z" fill="white"/>
<path d="M394.555 41.9474C387.986 41.9474 383.35 37.6982 383.35 31.672V13.0527C383.35 7.02651 387.986 2.77728 394.555 2.77728C401.123 2.77728 405.759 7.02651 405.759 13.0527V31.672C405.759 37.6209 401.123 41.9474 394.555 41.9474ZM402.745 13.2845C402.745 8.72619 399.886 5.17229 394.555 5.17229C389.223 5.17229 386.364 8.72619 386.364 13.2845V31.363C386.364 35.9212 389.223 39.4751 394.555 39.4751C399.886 39.4751 402.745 35.9212 402.745 31.363V13.2845Z" fill="white"/>
<path d="M425.386 41.9474C418.818 41.9474 414.182 37.6982 414.182 31.672V13.0527C414.182 7.02651 418.818 2.77728 425.386 2.77728C431.955 2.77728 436.591 7.02651 436.591 13.0527V31.672C436.668 37.6209 432.032 41.9474 425.386 41.9474ZM433.577 13.2845C433.577 8.72619 430.718 5.17229 425.386 5.17229C420.055 5.17229 417.196 8.72619 417.196 13.2845V31.363C417.196 35.9212 420.055 39.4751 425.386 39.4751C430.718 39.4751 433.577 35.9212 433.577 31.363V13.2845Z" fill="white"/>
</svg>
