<svg width="437" height="43" viewBox="0 0 437 43" fill="none" xmlns="http://www.w3.org/2000/svg">
<path d="M97.2864 42.8271C96.2819 42.5953 95.2773 42.518 94.3501 42.209C92.1864 41.4364 90.1001 40.432 88.0137 39.5822C86.9319 39.1186 85.8501 38.8096 84.7682 38.3461C83.7637 37.8825 82.5273 37.4962 81.9864 36.7236C80.441 34.5604 79.1273 32.1654 77.9682 29.7703C77.5819 28.9977 77.7364 27.7616 77.9682 26.9118C78.3546 25.5984 78.5864 24.3622 78.5864 22.9716C78.5864 14.6276 82.2955 8.44694 89.5592 4.35223C90.4864 3.81142 91.3364 3.11609 92.0319 2.3435C92.9592 1.26188 93.9637 0.566561 95.3546 0.566561C97.9819 0.566561 100.532 0.4893 103.159 0.721076C104.086 0.798335 104.936 1.64818 105.709 2.26625C106.636 2.96158 107.409 3.88868 108.414 4.4295C115.909 8.75598 119.618 15.0912 119.386 23.6669C119.386 24.5167 119.541 25.4439 119.85 26.2164C120.546 27.7616 120.546 29.2295 119.773 30.6974C119.232 31.7791 118.768 32.9379 118.073 33.9423C117.609 34.6376 117.764 35.0239 118.305 35.5647C120.159 37.3417 122.014 39.2732 123.868 41.0501C124.486 41.6682 124.718 42.1317 124.023 42.8271C120.623 42.8271 117.223 42.8271 113.823 42.8271C113.436 42.518 113.05 42.2862 112.664 41.9772C108.336 37.728 104.086 33.4788 99.8364 29.2295C99.4501 28.8432 99.141 28.1479 99.0637 27.5298C98.9864 26.2164 99.0637 24.8258 98.9864 23.5124C98.9864 22.8171 99.2955 22.508 99.991 22.508C101.15 22.508 102.386 22.5853 103.546 22.508C104.627 22.4308 105.477 22.7398 106.173 23.5896C107.255 24.8258 108.414 25.9074 109.727 27.2981C111.427 22.5853 110.964 18.4906 107.873 15.0139C104.627 11.2283 100.377 9.99212 95.5864 11.3828C90.3319 12.8507 86.7773 17.9498 87.1637 23.2033C87.6273 28.9205 91.8001 33.3242 97.5182 34.0968C98.2137 34.1741 99.0637 34.4831 99.6046 34.9467C101.768 36.9554 103.855 39.1186 106.018 41.2819C106.559 41.8227 106.791 42.3635 106.173 42.9043C103.236 42.8271 100.3 42.8271 97.2864 42.8271Z" fill="white"/>
<path d="M280.5 42.827C279.727 42.6725 278.877 42.518 278.105 42.3635C271.382 40.9728 267.209 36.1828 267.055 29.384C266.9 21.1173 266.977 12.8506 266.977 4.58396C266.977 3.81138 267.209 3.34782 268.136 3.34782C270.686 3.34782 273.314 3.42508 275.864 3.34782C277.1 3.34782 277.023 4.12041 277.023 4.89299C277.023 12.1553 277.023 19.4949 277.023 26.7572C277.023 28.0706 277.177 29.384 277.486 30.6201C278.105 33.0152 279.727 34.0195 282.432 33.9423C284.827 33.865 286.218 32.7061 286.682 30.3111C286.836 29.384 286.914 28.4569 286.914 27.4525C286.914 19.9584 286.914 12.4644 286.914 4.97026C286.914 3.73412 287.223 3.27057 288.536 3.27057C290.932 3.34783 293.327 3.34783 295.723 3.27057C296.573 3.27057 296.959 3.5796 296.959 4.5067C296.882 12.6189 297.114 20.8083 296.805 28.9205C296.496 36.8781 292.168 41.3591 284.209 42.518C283.977 42.518 283.746 42.6725 283.436 42.7498C282.432 42.827 281.427 42.827 280.5 42.827Z" fill="white"/>
<path d="M138.936 42.8271C138.009 42.6726 137.082 42.4408 136.155 42.2863C129.973 40.8956 125.723 36.0283 125.568 29.7704C125.414 21.4264 125.491 13.0052 125.491 4.66129C125.491 3.65693 125.877 3.42516 126.805 3.42516C129.2 3.50242 131.595 3.50242 133.991 3.42516C135.15 3.42516 135.459 3.88871 135.459 4.97033C135.459 12.3099 135.459 19.7267 135.459 27.0663C135.459 28.3025 135.614 29.6159 135.923 30.7747C136.541 33.1698 138.241 34.1741 141.023 34.0196C143.264 33.8651 144.655 32.629 145.118 30.3112C145.273 29.3068 145.35 28.3025 145.35 27.3754C145.35 19.9585 145.427 12.5417 145.35 5.12485C145.35 3.81145 145.736 3.3479 147.05 3.42516C149.368 3.50242 151.764 3.50242 154.082 3.42516C154.855 3.42516 155.318 3.57967 155.318 4.50678C155.241 13.0825 155.395 21.581 155.086 30.0794C154.777 37.0327 149.986 41.6682 143.032 42.5953C142.723 42.6726 142.414 42.7498 142.027 42.8271C141.023 42.8271 139.941 42.8271 138.936 42.8271Z" fill="white"/>
<path d="M343.786 22.6625C343.786 28.5342 343.786 34.4831 343.786 40.3548C343.786 41.9772 343.709 42.0545 342.086 42.0545C340.155 42.0545 338.145 42.0545 336.214 42.0545C335.209 42.0545 334.823 41.6682 334.823 40.6638C334.823 34.7149 334.823 28.766 334.823 22.817C334.823 22.508 334.9 22.199 334.823 21.8899C334.745 21.5036 334.745 20.8856 334.359 20.8083C333.973 20.7311 333.586 21.1946 333.355 21.5036C331.655 24.0532 330.032 26.6027 328.332 29.1523C327.018 31.161 325.705 33.247 324.314 35.2557C323.386 36.7236 323.077 36.7236 322.073 35.1784C319.214 30.7747 316.355 26.3709 313.495 21.9672C313.341 21.6582 313.109 21.3491 312.877 21.1173C312.723 20.9628 312.336 20.7311 312.259 20.8083C312.027 20.8856 311.795 21.1946 311.795 21.5036C311.718 21.8127 311.795 22.199 311.795 22.508C311.795 28.3797 311.795 34.3286 311.795 40.2002C311.795 41.8999 311.718 41.9772 310.095 41.9772C308.164 41.9772 306.155 41.9772 304.223 41.9772C303.218 41.9772 302.832 41.6682 302.832 40.5865C302.832 28.6114 302.832 16.5591 302.832 4.58399C302.832 3.57963 303.218 3.27059 304.145 3.34784C306.232 3.4251 308.318 3.4251 310.405 3.34784C311.486 3.27059 312.105 3.73414 312.645 4.58399C315.814 9.52855 319.059 14.3958 322.227 19.3404C323.232 20.9628 323.386 20.9628 324.468 19.2631C327.714 14.3958 330.882 9.45128 334.05 4.50673C334.591 3.65688 335.132 3.27059 336.136 3.34784C338.068 3.4251 340.077 3.34784 342.009 3.34784C343.786 3.34784 343.786 3.34784 343.786 5.04753C343.786 10.9965 343.786 16.7909 343.786 22.6625Z" fill="white"/>
<path d="M232.05 22.7398C232.05 28.6114 232.05 34.4831 232.05 40.2775C232.05 41.8999 231.895 42.0545 230.273 41.9772C228.418 41.9772 226.486 41.8999 224.632 41.9772C223.395 42.0545 222.7 41.5909 222.082 40.5865C218.064 34.4058 214.045 28.2251 209.95 22.0444C209.795 21.7354 209.641 21.4264 209.332 21.1946C209.177 21.0401 208.791 20.8083 208.559 20.8856C208.327 20.9628 208.25 21.3491 208.173 21.5809C208.095 21.8899 208.173 22.199 208.173 22.508C208.173 28.4569 208.173 34.4058 208.173 40.3548C208.173 41.9772 208.095 42.0545 206.473 42.0545C204.618 42.0545 202.841 42.0545 200.986 42.0545C199.209 42.0545 199.132 41.9772 199.132 40.2775C199.132 30.0794 199.132 19.8812 199.132 9.68305C199.132 8.13788 199.209 6.59271 199.132 4.97028C199.054 3.8114 199.441 3.34784 200.677 3.34784C202.532 3.4251 204.464 3.50236 206.318 3.34784C207.709 3.27058 208.482 3.8114 209.254 4.97028C213.195 11.151 217.291 17.2544 221.309 23.4351C221.464 23.5896 221.541 23.8214 221.695 23.9759C222.004 24.2077 222.236 24.6712 222.623 24.5167C223.009 24.4395 223.086 23.8214 223.086 23.5124C223.164 21.1946 223.086 18.9541 223.086 16.6363C223.086 12.6961 223.086 8.75595 223.086 4.81576C223.086 3.73414 223.395 3.34784 224.477 3.34784C226.486 3.4251 228.573 3.4251 230.659 3.34784C231.818 3.27058 232.127 3.81139 232.127 4.89301C232.05 10.8419 232.05 16.7909 232.05 22.7398Z" fill="white"/>
<path d="M161.423 41.9772C160.341 41.9772 159.259 41.9772 158.177 41.9772C156.786 41.9772 156.632 41.6682 157.095 40.432C158.486 36.9554 159.955 33.4788 161.345 29.9249C164.745 21.5809 168.145 13.237 171.545 4.89308C172.009 3.81146 172.55 3.27065 173.786 3.34791C175.332 3.42516 176.8 3.42516 178.345 3.34791C179.427 3.27065 179.891 3.7342 180.277 4.6613C184.218 14.3959 188.159 24.1305 192.1 33.7878C193.027 36.0283 193.955 38.1915 194.805 40.432C195.268 41.6682 195.114 41.9 193.8 41.9C191.636 41.9 189.473 41.9 187.232 41.9C186.227 41.9 185.764 41.5137 185.377 40.5866C182.673 33.9423 179.968 27.2208 177.264 20.5766C177.109 20.1903 176.955 19.7267 176.723 19.4177C176.491 19.0314 176.182 18.7224 175.873 18.3361C175.564 18.7224 175.177 19.0314 174.945 19.495C172.086 26.4482 169.227 33.4015 166.445 40.3548C165.982 41.5909 165.286 42.0545 163.973 41.9C163.277 41.9 162.35 41.9772 161.423 41.9772Z" fill="white"/>
<path d="M26.7363 41.8227C26.7363 28.9977 26.7363 16.2501 26.7363 3.42511C27.7409 3.42511 28.6681 3.42511 29.6727 3.42511C32.8409 3.42511 36.0091 3.42511 39.2545 3.42511C43.0409 3.42511 45.7454 6.12916 45.8227 9.91483C45.8227 11.6918 45.8227 13.4687 45.8227 15.2457C45.9 17.8725 44.9727 20.0357 42.5772 21.5809C45.2818 22.508 45.9772 24.4395 45.9 26.989C45.7454 30.0794 45.9 33.1697 45.9 36.1828C45.9 39.2731 44.2772 41.5136 41.1863 41.7454C36.3954 42.0544 31.6045 41.8227 26.7363 41.8227ZM33.15 23.3579C33.15 23.9759 33.15 24.5167 33.15 24.9803C33.15 28.4569 33.15 32.0108 33.15 35.4875C33.15 38.8868 33.15 38.8869 36.55 38.8096C38.4045 38.7323 39.1 38.2688 39.1772 36.4918C39.3318 33.0152 39.2545 29.6158 39.2545 26.1392C39.2545 25.5983 39.1772 25.0575 38.9454 24.6712C38.5591 24.1304 38.0181 23.5896 37.4 23.5124C36.0091 23.2033 34.6954 23.3579 33.15 23.3579ZM39.4091 13.3915C39.3318 12.0008 39.2545 10.6874 39.1 9.37403C38.8681 7.67434 38.25 7.13352 36.55 7.05627C35.7772 7.05627 35.0045 7.13352 34.2318 7.05627C33.3818 6.97901 33.0727 7.3653 33.15 8.13788C33.2272 10.9192 33.15 13.7778 33.15 16.5591C33.15 20.0357 33.15 20.0357 36.6272 19.9585C38.3272 19.8812 38.9454 19.4177 39.1 17.718C39.3318 16.3273 39.3318 14.8594 39.4091 13.3915Z" fill="white"/>
<path d="M254.459 27.1435C254.459 31.5473 254.459 35.951 254.459 40.432C254.459 42.0545 254.382 42.0545 252.759 42.1317C250.595 42.1317 248.509 42.1317 246.345 42.1317C244.491 42.1317 244.491 42.1317 244.491 40.2003C244.491 31.6245 244.491 23.0488 244.491 14.4731C244.491 12.2326 244.491 12.2326 242.173 12.2326C240.859 12.2326 239.545 12.2326 238.232 12.2326C237.227 12.2326 236.686 11.9236 236.764 10.842C236.841 8.83323 236.841 6.74725 236.764 4.73852C236.764 3.88868 237.073 3.50238 237.923 3.50238C245.573 3.50238 253.223 3.50238 260.95 3.50238C261.877 3.50238 262.186 3.88868 262.186 4.73852C262.186 6.74725 262.109 8.83323 262.186 10.842C262.186 11.8463 261.8 12.2326 260.795 12.2326C259.25 12.1554 257.627 12.3099 256.082 12.2326C254.691 12.1554 254.382 12.6962 254.382 13.9323C254.536 18.2588 254.459 22.6625 254.459 27.1435Z" fill="white"/>
<path d="M63.2091 29.6931C65.3727 29.6931 67.4591 29.6931 69.5455 29.6931C69.5455 33.7878 69.5455 37.8053 69.5455 41.9C63.2091 41.9 56.8727 41.9 50.4591 41.9C50.4591 29.075 50.4591 16.3273 50.4591 3.50238C52.5455 3.50238 54.5546 3.50238 56.7955 3.50238C56.7955 4.04319 56.7955 4.50674 56.7955 5.04755C56.7955 15.323 56.7955 25.5984 56.7955 35.8738C56.7955 36.5691 56.8727 37.3417 57.1818 37.9598C57.8 39.2732 59.2682 39.8912 60.7364 39.5049C62.1273 39.1959 63.1318 37.9598 63.2091 36.4919C63.2864 34.7149 63.2091 32.9379 63.2091 31.161C63.2091 30.6974 63.2091 30.2339 63.2091 29.6931Z" fill="white"/>
<path d="M15.6091 3.50238C17.6955 3.50238 19.7045 3.50238 21.8682 3.50238C21.8682 3.88867 21.9455 4.27497 21.9455 4.66126C21.9455 14.8594 21.9455 25.0576 21.9455 35.2557C21.9455 38.5006 20.3227 40.8183 17.2318 41.8227C13.9864 42.9043 10.5864 42.9816 7.41819 41.6682C4.32728 40.3548 2.62728 37.9598 2.70455 34.5604C2.70455 33.3242 2.70455 32.0108 2.70455 30.7747C2.70455 29.9249 2.93637 29.6158 3.78637 29.6158C5.25455 29.6931 6.64546 29.6931 8.11364 29.6158C8.88637 29.6158 9.19546 29.9249 9.19546 30.6974C9.11819 32.4744 9.19546 34.2513 9.19546 36.0283C9.19546 38.1143 10.4318 39.5049 12.2091 39.6594C14.0636 39.814 15.5318 38.4233 15.6864 36.3373C15.7636 35.333 15.6091 34.2513 15.6091 33.247C15.6091 23.7442 15.6091 14.2413 15.6091 4.73852C15.5318 4.35223 15.5318 3.96593 15.6091 3.50238Z" fill="white"/>
<path d="M0 3.50238C3.94091 3.50238 7.72727 3.50238 11.7455 3.50238C9.81364 7.90612 7.95909 12.1554 5.87273 16.8681C3.86364 12.2326 1.93182 7.90612 0 3.50238Z" fill="white"/>
<path d="M9.58188 21.8127C9.58188 23.8987 7.95915 25.5983 5.87279 25.5211C3.78642 25.5211 2.1637 23.8214 2.1637 21.7354C2.1637 19.7267 3.78642 18.1042 5.79551 18.1042C7.88188 18.1042 9.58188 19.7267 9.58188 21.8127Z" fill="white"/>
<path d="M362.95 42.209C356.305 42.209 351.282 39.1186 350.741 32.4744H353.832C354.296 37.728 358.468 39.7367 362.95 39.7367C368.05 39.7367 371.991 36.6463 371.991 31.5473C371.991 26.3709 369.209 23.3579 362.718 23.3579H362.023V20.9628H362.718C368.514 20.9628 371.218 18.1815 371.218 13.237C371.218 8.21515 367.586 5.43383 362.95 5.43383C357.927 5.43383 354.991 8.13789 354.45 12.4644H351.359C352.055 6.4382 356.691 3.03882 362.95 3.03882C369.673 3.03882 374.309 7.05627 374.309 13.237C374.309 17.3317 372.532 20.3448 368.282 21.9672C373.073 23.4351 375.159 26.68 375.159 31.6245C375.082 38.4233 369.905 42.209 362.95 42.209Z" fill="white"/>
<path d="M394.555 42.1317C387.986 42.1317 383.35 37.8825 383.35 31.8563V13.237C383.35 7.21078 387.986 2.96155 394.555 2.96155C401.123 2.96155 405.759 7.21078 405.759 13.237V31.8563C405.759 37.8825 401.123 42.1317 394.555 42.1317ZM402.746 13.546C402.746 8.98772 399.886 5.43382 394.555 5.43382C389.223 5.43382 386.364 8.98772 386.364 13.546V31.6245C386.364 36.1828 389.223 39.7367 394.555 39.7367C399.886 39.7367 402.746 36.1828 402.746 31.6245V13.546Z" fill="white"/>
<path d="M425.386 42.1317C418.818 42.1317 414.182 37.8825 414.182 31.8563V13.237C414.182 7.21078 418.818 2.96155 425.386 2.96155C431.955 2.96155 436.591 7.21078 436.591 13.237V31.8563C436.668 37.8825 432.032 42.1317 425.386 42.1317ZM433.577 13.546C433.577 8.98772 430.718 5.43382 425.386 5.43382C420.055 5.43382 417.196 8.98772 417.196 13.546V31.6245C417.196 36.1828 420.055 39.7367 425.386 39.7367C430.718 39.7367 433.577 36.1828 433.577 31.6245V13.546Z" fill="white"/>
</svg>
