<svg width="439" height="43" viewBox="0 0 439 43" fill="none" xmlns="http://www.w3.org/2000/svg">
<path d="M97.441 42.2741C96.4364 42.0423 95.4319 41.965 94.5046 41.656C92.341 40.8834 90.2546 39.8791 88.091 39.0292C87.0092 38.5657 85.9273 38.2566 84.8455 37.7931C83.841 37.3295 82.6046 36.9432 81.9864 36.1707C80.441 34.0074 79.1273 31.6124 77.9682 29.2174C77.5819 28.4448 77.7364 27.2086 77.9682 26.3588C78.3546 25.0454 78.5864 23.8093 78.5864 22.4186C78.5864 14.0747 82.2955 7.89396 89.6364 3.79925C90.5637 3.25844 91.4137 2.56313 92.1091 1.79054C93.0364 0.708921 94.041 0.0135788 95.4319 0.0135788C98.0592 0.0135788 100.686 -0.0636705 103.236 0.168106C104.164 0.245364 105.014 1.09521 105.786 1.71328C106.714 2.40861 107.486 3.3357 108.491 3.87651C115.986 8.203 119.696 14.5382 119.464 23.1912C119.464 24.041 119.618 24.9681 119.927 25.7407C120.623 27.2859 120.623 28.7538 119.85 30.2217C119.309 31.3033 118.846 32.4622 118.15 33.4666C117.686 34.1619 117.841 34.5482 118.382 35.089C120.236 36.866 122.091 38.7974 123.946 40.5744C124.564 41.1925 124.796 41.656 124.1 42.3514C120.7 42.3514 117.3 42.3514 113.9 42.3514C113.514 42.0423 113.127 41.8105 112.741 41.5015C108.414 37.2523 104.164 33.003 99.8364 28.6766C99.4501 28.2903 99.141 27.5949 99.0637 26.9769C98.9864 25.6635 99.0637 24.2728 98.9864 22.9594C98.9864 22.2641 99.2955 21.955 99.991 21.955C101.15 21.955 102.386 22.0323 103.546 21.955C104.627 21.8778 105.477 22.2641 106.173 23.0367C107.255 24.2728 108.414 25.3544 109.727 26.7451C111.427 22.0323 110.964 17.9376 107.873 14.461C104.627 10.6753 100.377 9.43914 95.5864 10.8298C90.3319 12.375 86.7773 17.4741 87.1637 22.6504C87.6273 28.3675 91.8001 32.7713 97.5182 33.6211C98.2137 33.6984 99.0637 34.0074 99.6046 34.471C101.768 36.4797 103.855 38.6429 106.018 40.8062C106.559 41.347 106.791 41.8878 106.173 42.4286C103.391 42.2741 100.377 42.2741 97.441 42.2741Z" fill="white"/>
<path d="M280.809 42.2741C280.036 42.1196 279.186 41.965 278.414 41.8105C271.691 40.4199 267.518 35.6298 267.364 28.8311C267.209 20.5644 267.286 12.2204 267.286 3.95376C267.286 3.18117 267.518 2.71761 268.445 2.71761C270.995 2.71761 273.623 2.79487 276.173 2.71761C277.409 2.71761 277.332 3.4902 277.332 4.26279C277.332 11.5251 277.332 18.8647 277.332 26.127C277.332 27.4404 277.486 28.7538 277.796 29.9899C278.414 32.385 280.036 33.3893 282.741 33.3121C285.136 33.2348 286.527 32.0759 286.991 29.6809C287.146 28.7538 287.223 27.8267 287.223 26.8223C287.223 19.3282 287.223 11.8341 287.223 4.26279C287.223 3.02665 287.532 2.56311 288.845 2.56311C291.241 2.64037 293.636 2.64037 296.032 2.56311C296.882 2.56311 297.268 2.87213 297.268 3.79923C297.191 11.9887 297.423 20.1008 297.114 28.2902C296.805 36.2479 292.477 40.7289 284.518 41.8878C284.286 41.8878 284.055 42.0423 283.746 42.1196C282.741 42.2741 281.736 42.2741 280.809 42.2741Z" fill="white"/>
<path d="M139.091 42.2741C138.164 42.1196 137.236 41.8878 136.309 41.7333C130.127 40.3426 125.877 35.4754 125.723 29.2174C125.568 20.8735 125.645 12.4523 125.645 4.10833C125.645 3.10396 126.032 2.87218 126.959 2.87218C129.355 2.94944 131.75 2.94944 134.145 2.87218C135.305 2.87218 135.614 3.33573 135.614 4.41736C135.614 11.7569 135.614 19.1738 135.614 26.5133C135.614 27.7495 135.768 29.0629 136.077 30.2218C136.695 32.6168 138.395 33.6211 141.177 33.4666C143.418 33.3121 144.809 32.076 145.273 29.7582C145.427 28.7538 145.505 27.7495 145.505 26.8224C145.505 19.4055 145.582 11.9887 145.505 4.57186C145.505 3.25846 145.891 2.79492 147.205 2.87218C149.523 2.94944 151.918 2.94944 154.236 2.87218C155.009 2.87218 155.473 3.02669 155.473 3.9538C155.395 12.5295 155.55 21.028 155.241 29.6037C154.932 36.557 150.141 41.1925 143.109 42.1196C142.8 42.1968 142.491 42.2741 142.105 42.3514C141.177 42.2741 140.095 42.2741 139.091 42.2741Z" fill="white"/>
<path d="M344.173 22.0323C344.173 27.9039 344.173 33.8528 344.173 39.7245C344.173 41.3469 344.095 41.4242 342.473 41.4242C340.541 41.4242 338.532 41.4242 336.6 41.4242C335.595 41.4242 335.209 41.0379 335.209 40.0335C335.209 34.0846 335.209 28.1357 335.209 22.1868C335.209 21.8778 335.286 21.5687 335.209 21.2597C335.132 20.8734 335.132 20.2553 334.745 20.1781C334.359 20.1008 333.973 20.5643 333.741 20.8734C332.041 23.4229 330.418 25.9724 328.718 28.522C327.404 30.5307 326.091 32.6167 324.7 34.6254C323.773 36.0934 323.464 36.0934 322.459 34.5482C319.6 30.1444 316.741 25.7407 313.805 21.3369C313.65 21.0279 313.418 20.7189 313.186 20.4871C313.032 20.3326 312.645 20.1008 312.568 20.1781C312.336 20.2553 312.105 20.5643 312.105 20.8734C312.027 21.1824 312.105 21.5687 312.105 21.8778C312.105 27.7494 312.105 33.6983 312.105 39.57C312.105 41.2697 312.027 41.3469 310.405 41.3469C308.473 41.3469 306.464 41.3469 304.532 41.3469C303.527 41.3469 303.141 41.0379 303.141 39.9563C303.141 27.9039 303.141 15.9288 303.141 3.87647C303.141 2.87211 303.527 2.56307 304.455 2.64033C306.541 2.71758 308.627 2.71758 310.714 2.64033C311.795 2.56307 312.414 3.02662 312.955 3.87647C316.123 8.82103 319.368 13.6883 322.536 18.6329C323.541 20.2553 323.695 20.2553 324.777 18.5556C328.023 13.6111 331.191 8.74376 334.359 3.79921C334.9 2.94936 335.441 2.56307 336.445 2.64033C338.377 2.71758 340.386 2.64033 342.318 2.64033C344.095 2.64033 344.095 2.64033 344.095 4.34003C344.173 10.3662 344.173 16.1606 344.173 22.0323Z" fill="white"/>
<path d="M232.282 22.1095C232.282 27.9812 232.282 33.8528 232.282 39.7245C232.282 41.3469 232.127 41.5015 230.505 41.4242C228.65 41.4242 226.718 41.3469 224.864 41.4242C223.627 41.5015 222.932 41.0379 222.314 40.0336C218.296 33.8529 214.277 27.6722 210.182 21.4915C210.027 21.1824 209.873 20.8734 209.564 20.6416C209.332 20.4871 209.023 20.2553 208.791 20.3326C208.559 20.4098 208.482 20.7961 208.405 21.0279C208.327 21.3369 208.405 21.646 208.405 21.955C208.405 27.9039 208.405 33.8528 208.405 39.8018C208.405 41.4242 208.327 41.5015 206.705 41.5015C204.85 41.5015 203.073 41.5015 201.218 41.5015C199.441 41.5015 199.364 41.4242 199.364 39.7245C199.364 29.5264 199.364 19.3282 199.364 9.13008C199.364 7.58491 199.441 6.03973 199.364 4.4173C199.286 3.25842 199.673 2.79486 200.909 2.79486C202.764 2.87212 204.696 2.94938 206.55 2.79486C207.941 2.7176 208.714 3.25842 209.486 4.4173C213.427 10.598 217.523 16.7014 221.541 22.8821C221.696 23.0366 221.773 23.2684 221.927 23.4229C222.236 23.6547 222.468 24.1183 222.855 23.9637C223.241 23.8865 223.318 23.2684 223.318 22.9594C223.396 20.6416 223.318 18.3239 223.318 16.0834C223.318 12.1432 223.318 8.20296 223.318 4.26277C223.318 3.18115 223.627 2.79486 224.709 2.79486C226.795 2.87212 228.805 2.87212 230.891 2.79486C232.05 2.7176 232.359 3.25841 232.359 4.34003C232.282 10.2117 232.282 16.1606 232.282 22.1095Z" fill="white"/>
<path d="M161.577 41.347C160.495 41.347 159.414 41.347 158.332 41.347C156.941 41.347 156.786 41.0379 157.25 39.8018C158.641 36.3252 160.109 32.7713 161.5 29.2946C164.9 20.9507 168.3 12.6068 171.7 4.18556C172.164 3.10394 172.705 2.56313 173.941 2.64039C175.486 2.71764 177.032 2.71764 178.5 2.64039C179.582 2.56313 180.045 3.02669 180.432 3.95379C184.373 13.6884 188.314 23.423 192.255 33.1576C193.182 35.3981 194.109 37.5613 194.959 39.8018C195.423 41.0379 195.268 41.2697 193.955 41.2697C191.791 41.2697 189.627 41.2697 187.386 41.2697C186.382 41.2697 185.918 40.8834 185.532 39.9563C182.827 33.3121 180.123 26.5906 177.418 19.9463C177.264 19.5601 177.109 19.0965 176.877 18.7102C176.645 18.3239 176.336 18.0149 176.027 17.6286C175.718 18.0149 175.332 18.3239 175.1 18.7875C172.241 25.7407 169.382 32.694 166.6 39.6473C166.136 40.8834 165.441 41.347 164.127 41.1925C163.432 41.2697 162.505 41.347 161.577 41.347Z" fill="white"/>
<path d="M26.8136 41.2698C26.8136 28.4448 26.8136 15.6971 26.8136 2.79492C27.8181 2.79492 28.8227 2.79492 29.75 2.79492C32.9181 2.79492 36.0863 2.79492 39.3318 2.79492C43.1181 2.79492 45.8227 5.49897 45.9 9.28465C45.9 11.0616 45.9 12.8385 45.9 14.6155C45.9772 17.3196 45.05 19.4828 42.6545 21.028C45.3591 21.9551 46.0545 23.8866 45.9772 26.4361C45.8227 29.5265 45.9772 32.6168 45.9772 35.7072C45.9772 38.7975 44.3545 41.038 41.2636 41.2698C36.3954 41.4243 31.6818 41.2698 26.8136 41.2698ZM33.15 22.7277C33.15 23.3457 33.15 23.8866 33.15 24.3501C33.15 27.8267 33.15 31.3807 33.15 34.8573C33.15 38.2567 33.15 38.2567 36.6272 38.1794C38.4818 38.1022 39.1772 37.6386 39.2545 35.8617C39.4091 32.385 39.3318 28.9856 39.3318 25.509C39.3318 24.9682 39.2545 24.4274 39.0227 24.0411C38.6363 23.5003 38.0954 22.9595 37.4772 22.8822C36.0863 22.5732 34.6954 22.7277 33.15 22.7277ZM39.4863 12.7613C39.4091 11.3706 39.3318 10.0573 39.1772 8.74385C38.9454 7.04416 38.3272 6.50335 36.6272 6.42609C35.8545 6.42609 35.0818 6.50335 34.3091 6.42609C33.4591 6.34883 33.15 6.73512 33.2272 7.50771C33.3045 10.289 33.2272 13.1476 33.2272 15.9289C33.2272 19.4056 33.2272 19.4055 36.7818 19.3283C38.4818 19.251 39.1 18.7875 39.2545 17.0878C39.3318 15.6971 39.4091 14.2292 39.4863 12.7613Z" fill="white"/>
<path d="M254.691 26.5133C254.691 30.917 254.691 35.398 254.691 39.8018C254.691 41.4242 254.614 41.4242 252.991 41.5015C250.827 41.5015 248.741 41.5015 246.577 41.5015C244.723 41.5015 244.723 41.5015 244.723 39.57C244.723 30.9943 244.723 22.4186 244.723 13.8428C244.723 11.6023 244.723 11.6024 242.405 11.6024C241.091 11.6024 239.777 11.6024 238.464 11.6024C237.459 11.6024 236.918 11.2933 236.995 10.2117C237.073 8.20298 237.073 6.117 236.995 4.10827C236.995 3.25843 237.305 2.87213 238.155 2.87213C245.805 2.87213 253.532 2.87213 261.182 2.87213C262.109 2.87213 262.418 3.25843 262.418 4.10827C262.418 6.117 262.341 8.20298 262.418 10.2117C262.418 11.2161 262.032 11.6024 261.027 11.6024C259.482 11.5251 257.859 11.6796 256.314 11.6024C254.923 11.5251 254.614 12.0659 254.614 13.3021C254.768 17.6285 254.691 22.0323 254.691 26.5133Z" fill="white"/>
<path d="M63.2864 29.0628C65.5273 29.0628 67.5364 29.0628 69.6227 29.0628C69.6227 33.1575 69.6227 37.175 69.6227 41.2697C63.2864 41.2697 56.95 41.2697 50.4591 41.2697C50.4591 28.4447 50.4591 15.6971 50.4591 2.87213C52.5455 2.87213 54.5546 2.87213 56.7955 2.87213C56.7955 3.41294 56.7955 3.87649 56.7955 4.41731C56.7955 14.6927 56.7955 24.9681 56.7955 35.2435C56.7955 35.9388 56.8727 36.7114 57.1818 37.4068C57.8 38.7201 59.2682 39.3382 60.7364 38.9519C62.1273 38.6429 63.1318 37.4068 63.2091 35.9388C63.2864 34.1619 63.2091 32.3849 63.2091 30.608C63.2864 30.0672 63.2864 29.6036 63.2864 29.0628Z" fill="white"/>
<path d="M15.6091 2.87213C17.6955 2.87213 19.7046 2.87213 21.8682 2.87213C21.8682 3.25842 21.9455 3.64472 21.9455 4.03101C21.9455 14.2292 21.9455 24.4273 21.9455 34.6255C21.9455 37.8703 20.3227 40.1881 17.2318 41.1924C13.9091 42.2741 10.5864 42.3513 7.34092 41.0379C4.25001 39.7245 2.55001 37.3295 2.62728 33.9301C2.62728 32.694 2.62728 31.3806 2.62728 30.1444C2.62728 29.2946 2.8591 28.9856 3.7091 28.9856C5.17728 29.0628 6.56819 29.0628 8.03637 28.9856C8.8091 28.9856 9.11819 29.2946 9.11819 30.0672C9.04092 31.8441 9.11819 33.6211 9.11819 35.398C9.11819 37.484 10.3546 38.8747 12.1318 39.0292C13.9864 39.1837 15.4546 37.7931 15.6091 35.7071C15.6864 34.7027 15.5318 33.6211 15.5318 32.6167C15.5318 23.1139 15.5318 13.6111 15.5318 4.10828C15.5318 3.64472 15.6091 3.33568 15.6091 2.87213Z" fill="white"/>
<path d="M0 2.87213C3.94091 2.87213 7.80455 2.87213 11.7455 2.87213C9.81364 7.27588 7.95909 11.6024 5.87273 16.2379C3.86364 11.6024 1.93182 7.27588 0 2.87213Z" fill="white"/>
<path d="M9.58188 21.1824C9.58188 23.2684 7.95915 24.9681 5.87279 24.8909C3.78642 24.8909 2.1637 23.1912 2.1637 21.1052C2.1637 19.0964 3.78642 17.474 5.79551 17.474C7.88188 17.474 9.58188 19.0964 9.58188 21.1824Z" fill="white"/>
<path d="M375.159 2.64032V29.5263H379.332V32.5394H375.159V41.2697H372.609V32.5394H352.364L351.823 28.9855L370.986 2.64032H375.159V2.64032ZM372.609 4.88084L354.527 29.6036H372.609V4.88084Z" fill="white"/>
<path d="M383.118 17.3195C383.118 -2.92229 408.464 -2.84503 408.464 17.3195V26.5133C408.464 46.6778 383.118 46.7551 383.118 26.5133V17.3195ZM385.591 26.5133C385.591 43.0466 405.914 42.9694 405.914 26.5133V17.3195C405.914 0.863389 385.591 0.863389 385.591 17.3195V26.5133V26.5133Z" fill="white"/>
<path d="M413.1 17.3195C413.1 -2.92229 438.445 -2.84503 438.445 17.3195V26.5133C438.445 46.6778 413.1 46.7551 413.1 26.5133V17.3195ZM415.65 26.5133C415.65 43.0466 435.973 42.9694 435.973 26.5133V17.3195C435.973 0.863389 415.65 0.863389 415.65 17.3195V26.5133Z" fill="white"/>
</svg>
