<svg width="437" height="44" viewBox="0 0 437 44" fill="none" xmlns="http://www.w3.org/2000/svg">
<path d="M97.2864 43.0885C96.2819 42.8568 95.2773 42.7795 94.3501 42.4705C92.1864 41.6979 90.1001 40.6935 88.0137 39.8437C86.9319 39.3801 85.8501 39.0711 84.7682 38.6075C83.7637 38.144 82.5273 37.7577 81.9864 36.9851C80.441 34.8218 79.1273 32.4268 77.9682 30.0318C77.5819 29.2592 77.7364 28.0231 77.9682 27.1732C78.3546 25.8598 78.5864 24.6237 78.5864 23.233C78.5864 14.8891 82.2955 8.70842 89.5592 4.61371C90.4864 4.0729 91.3364 3.37757 92.0319 2.60499C92.9592 1.52336 93.9637 0.828034 95.3546 0.828034C97.9819 0.828034 100.532 0.750779 103.159 0.982555C104.086 1.05981 104.936 1.90966 105.709 2.52773C106.636 3.22306 107.409 4.15016 108.414 4.69097C115.909 9.01745 119.618 15.3527 119.386 23.9284C119.386 24.7782 119.541 25.7053 119.85 26.4779C120.546 28.0231 120.546 29.491 119.773 30.9589C119.232 32.0405 118.768 33.1994 118.073 34.2038C117.609 34.8991 117.764 35.2854 118.305 35.8262C120.159 37.6032 122.014 39.5346 123.868 41.3116C124.486 41.9296 124.718 42.3932 124.023 43.0885C120.623 43.0885 117.223 43.0885 113.823 43.0885C113.436 42.7795 113.05 42.5477 112.664 42.2387C108.336 37.9895 104.086 33.7402 99.8364 29.491C99.4501 29.1047 99.141 28.4094 99.0637 27.7913C98.9864 26.4779 99.0637 25.0873 98.9864 23.7739C98.9864 23.0785 99.2955 22.7695 99.991 22.7695C101.15 22.7695 102.386 22.8468 103.546 22.7695C104.627 22.6922 105.477 23.0013 106.173 23.8511C107.255 25.0873 108.414 26.1689 109.727 27.5595C111.427 22.8468 110.964 18.752 107.873 15.2754C104.627 11.4897 100.377 10.2536 95.5864 11.6442C90.3319 13.1122 86.7773 18.2112 87.1637 23.4648C87.6273 29.182 91.8001 33.5857 97.5182 34.3583C98.2137 34.4356 99.0637 34.7446 99.6046 35.2081C101.768 37.2169 103.855 39.3801 106.018 41.5434C106.559 42.0842 106.791 42.625 106.173 43.1658C103.236 43.0885 100.3 43.0885 97.2864 43.0885Z" fill="white"/>
<path d="M280.5 43.0885C279.727 42.934 278.877 42.7795 278.105 42.6249C271.382 41.2343 267.209 36.4442 267.055 29.6455C266.9 21.3788 266.977 13.1121 266.977 4.84544C266.977 4.07286 267.209 3.6093 268.136 3.6093C270.686 3.6093 273.314 3.68656 275.864 3.6093C277.1 3.6093 277.023 4.38189 277.023 5.15447C277.023 12.4168 277.023 19.7564 277.023 27.0187C277.023 28.3321 277.177 29.6455 277.486 30.8816C278.105 33.2766 279.727 34.281 282.432 34.2037C284.827 34.1265 286.218 32.9676 286.682 30.5726C286.836 29.6455 286.914 28.7184 286.914 27.714C286.914 20.2199 286.914 12.7258 286.914 5.23174C286.914 3.9956 287.223 3.53204 288.536 3.53204C290.932 3.6093 293.327 3.6093 295.723 3.53204C296.573 3.53204 296.959 3.84108 296.959 4.76818C296.882 12.8803 297.114 21.0698 296.805 29.1819C296.496 37.1396 292.168 41.6206 284.209 42.7795C283.977 42.7795 283.746 42.934 283.436 43.0112C282.432 43.0885 281.427 43.0885 280.5 43.0885Z" fill="white"/>
<path d="M138.936 43.0886C138.009 42.934 137.082 42.7023 136.155 42.5478C129.973 41.1571 125.723 36.2898 125.568 30.0318C125.414 21.6879 125.491 13.2667 125.491 4.92277C125.491 3.91841 125.877 3.68664 126.805 3.68664C129.2 3.76389 131.595 3.76389 133.991 3.68664C135.15 3.68664 135.459 4.15019 135.459 5.23181C135.459 12.5714 135.459 19.9882 135.459 27.3278C135.459 28.5639 135.614 29.8773 135.923 31.0362C136.541 33.4312 138.241 34.4356 141.023 34.2811C143.264 34.1266 144.655 32.8904 145.118 30.5727C145.273 29.5683 145.35 28.5639 145.35 27.6368C145.35 20.22 145.427 12.8032 145.35 5.38632C145.35 4.07293 145.736 3.60938 147.05 3.68664C149.368 3.76389 151.764 3.76389 154.082 3.68664C154.855 3.68664 155.318 3.84115 155.318 4.76825C155.241 13.344 155.395 21.8424 155.086 30.3409C154.777 37.2942 149.986 41.9297 143.032 42.8568C142.723 42.934 142.414 43.0113 142.027 43.0886C141.023 43.0886 139.941 43.0886 138.936 43.0886Z" fill="white"/>
<path d="M343.786 22.8467C343.786 28.7184 343.786 34.6673 343.786 40.539C343.786 42.1614 343.709 42.2386 342.086 42.2386C340.155 42.2386 338.145 42.2386 336.214 42.2386C335.209 42.2386 334.823 41.8524 334.823 40.848C334.823 34.8991 334.823 28.9502 334.823 23.0012C334.823 22.6922 334.9 22.3832 334.823 22.0741C334.745 21.6878 334.745 21.0698 334.359 20.9925C333.973 20.9153 333.586 21.3788 333.355 21.6878C331.655 24.2374 330.032 26.7869 328.332 29.3364C327.018 31.3452 325.705 33.4312 324.314 35.4399C323.386 36.9078 323.077 36.9078 322.073 35.3626C319.214 30.9589 316.355 26.5551 313.495 22.1514C313.341 21.8424 313.109 21.5333 312.877 21.3015C312.723 21.147 312.336 20.9153 312.259 20.9925C312.027 21.0698 311.795 21.3788 311.795 21.6878C311.718 21.9969 311.795 22.3832 311.795 22.6922C311.795 28.5639 311.795 34.5128 311.795 40.3844C311.795 42.0841 311.718 42.1614 310.095 42.1614C308.164 42.1614 306.155 42.1614 304.223 42.1614C303.218 42.1614 302.832 41.8524 302.832 40.7707C302.832 28.7956 302.832 16.7433 302.832 4.76819C302.832 3.76382 303.218 3.45479 304.145 3.53205C306.232 3.60931 308.318 3.60931 310.405 3.53205C311.486 3.45479 312.105 3.91834 312.645 4.76819C315.814 9.71274 319.059 14.58 322.227 19.5246C323.232 21.147 323.386 21.147 324.468 19.4473C327.714 14.58 330.882 9.63548 334.05 4.69093C334.591 3.84108 335.132 3.45479 336.136 3.53205C338.068 3.60931 340.077 3.53205 342.009 3.53205C343.786 3.53205 343.786 3.53205 343.786 5.23174C343.786 11.1807 343.786 17.0523 343.786 22.8467Z" fill="white"/>
<path d="M232.05 22.924C232.05 28.7957 232.05 34.6673 232.05 40.4617C232.05 42.0842 231.895 42.2387 230.273 42.1614C228.418 42.1614 226.486 42.0842 224.632 42.1614C223.395 42.2387 222.7 41.7751 222.082 40.7708C218.064 34.5901 214.045 28.4094 209.95 22.2287C209.795 21.9197 209.641 21.6106 209.332 21.3789C209.177 21.2243 208.791 20.9926 208.559 21.0698C208.327 21.1471 208.25 21.5334 208.173 21.7651C208.095 22.0742 208.173 22.3832 208.173 22.6923C208.173 28.6412 208.173 34.5901 208.173 40.539C208.173 42.1614 208.095 42.2387 206.473 42.2387C204.618 42.2387 202.841 42.2387 200.986 42.2387C199.209 42.2387 199.132 42.1614 199.132 40.4617C199.132 30.2636 199.132 20.0655 199.132 9.86732C199.132 8.32214 199.209 6.77697 199.132 5.15453C199.054 3.99565 199.441 3.5321 200.677 3.5321C202.532 3.60936 204.464 3.68662 206.318 3.5321C207.709 3.45484 208.482 3.99565 209.254 5.15453C213.195 11.3352 217.291 17.4387 221.309 23.6194C221.464 23.7739 221.541 24.0057 221.695 24.1602C222.004 24.3919 222.236 24.8555 222.623 24.701C223.009 24.6237 223.086 24.0056 223.086 23.6966C223.164 21.3789 223.086 19.1384 223.086 16.8206C223.086 12.8804 223.086 8.94021 223.086 5.00002C223.086 3.9184 223.395 3.5321 224.477 3.5321C226.486 3.60936 228.573 3.60936 230.659 3.5321C231.818 3.45484 232.127 3.99566 232.127 5.07728C232.05 11.1035 232.05 16.9751 232.05 22.924Z" fill="white"/>
<path d="M161.423 42.1614C160.341 42.1614 159.259 42.1614 158.177 42.1614C156.786 42.1614 156.632 41.8524 157.095 40.6162C158.486 37.1396 159.955 33.6629 161.345 30.109C164.745 21.7651 168.145 13.4212 171.545 5.07722C172.009 3.9956 172.55 3.45479 173.786 3.53205C175.332 3.60931 176.8 3.60931 178.345 3.53205C179.427 3.45479 179.891 3.91835 180.277 4.84545C184.218 14.58 188.159 24.3146 192.1 33.972C193.027 36.2125 193.955 38.3757 194.805 40.6162C195.268 41.8524 195.114 42.0841 193.8 42.0841C191.636 42.0841 189.473 42.0841 187.232 42.0841C186.227 42.0841 185.764 41.6978 185.377 40.7707C182.673 34.1265 179.968 27.405 177.264 20.7607C177.109 20.3744 176.955 19.9109 176.723 19.6019C176.491 19.2156 176.182 18.9065 175.873 18.5202C175.564 18.9065 175.177 19.2156 174.945 19.6791C172.086 26.6324 169.227 33.5857 166.445 40.539C165.982 41.7751 165.286 42.2386 163.973 42.0841C163.277 42.0841 162.35 42.1614 161.423 42.1614Z" fill="white"/>
<path d="M26.7363 42.0842C26.7363 29.2592 26.7363 16.5115 26.7363 3.68658C27.7409 3.68658 28.6681 3.68658 29.6727 3.68658C32.8409 3.68658 36.0091 3.68658 39.2545 3.68658C43.0409 3.68658 45.7454 6.39063 45.8227 10.1763C45.8227 11.9533 45.8227 13.7302 45.8227 15.5072C45.9 18.134 44.9727 20.2972 42.5772 21.8424C45.2818 22.7695 45.9772 24.7009 45.9 27.2505C45.7454 30.3408 45.9 33.4312 45.9 36.4443C45.9 39.5346 44.2772 41.7751 41.1863 42.0069C36.3954 42.2387 31.6045 42.0842 26.7363 42.0842ZM33.15 23.5421C33.15 24.1601 33.15 24.7009 33.15 25.1645C33.15 28.6411 33.15 32.195 33.15 35.6717C33.15 39.0711 33.15 39.0711 36.55 38.9938C38.4045 38.9165 39.1 38.453 39.1772 36.676C39.3318 33.1994 39.2545 29.8 39.2545 26.3234C39.2545 25.7826 39.1772 25.2418 38.9454 24.8555C38.5591 24.3147 38.0181 23.7738 37.4 23.6966C36.0091 23.4648 34.6954 23.5421 33.15 23.5421ZM39.4091 13.653C39.3318 12.2623 39.2545 10.9489 39.1 9.6355C38.8681 7.93581 38.25 7.395 36.55 7.31774C35.7772 7.31774 35.0045 7.395 34.2318 7.31774C33.3818 7.24048 33.0727 7.62678 33.15 8.39936C33.2272 11.1807 33.15 14.0392 33.15 16.8206C33.15 20.2972 33.15 20.2972 36.6272 20.2199C38.3272 20.1427 38.9454 19.6791 39.1 17.9794C39.3318 16.5115 39.3318 15.0436 39.4091 13.653Z" fill="white"/>
<path d="M254.459 27.3277C254.459 31.7315 254.459 36.1352 254.459 40.6162C254.459 42.2387 254.382 42.2387 252.759 42.3159C250.595 42.3159 248.509 42.3159 246.345 42.3159C244.491 42.3159 244.491 42.3159 244.491 40.3845C244.491 31.8087 244.491 23.233 244.491 14.6573C244.491 12.4168 244.491 12.4168 242.173 12.4168C240.859 12.4168 239.545 12.4168 238.232 12.4168C237.227 12.4168 236.686 12.1078 236.764 11.0262C236.841 9.01743 236.841 6.93145 236.764 4.92272C236.764 4.07288 237.073 3.68658 237.923 3.68658C245.573 3.68658 253.223 3.68658 260.95 3.68658C261.877 3.68658 262.186 4.07288 262.186 4.92272C262.186 6.93145 262.109 9.01743 262.186 11.0262C262.186 12.0305 261.8 12.4168 260.795 12.4168C259.25 12.3396 257.627 12.4941 256.082 12.4168C254.691 12.3396 254.382 12.8804 254.382 14.1165C254.536 18.443 254.459 22.924 254.459 27.3277Z" fill="white"/>
<path d="M63.2091 29.8773C65.3727 29.8773 67.4591 29.8773 69.5455 29.8773C69.5455 33.972 69.5455 37.9894 69.5455 42.0842C63.2091 42.0842 56.8727 42.0842 50.4591 42.0842C50.4591 29.2592 50.4591 16.5115 50.4591 3.68658C52.5455 3.68658 54.5546 3.68658 56.7955 3.68658C56.7955 4.2274 56.7955 4.69095 56.7955 5.23176C56.7955 15.5072 56.7955 25.7826 56.7955 36.058C56.7955 36.7533 56.8727 37.5259 57.1818 38.144C57.8 39.4574 59.2682 40.0754 60.7364 39.6891C62.1273 39.3801 63.1318 38.144 63.2091 36.676C63.2864 34.8991 63.2091 33.1221 63.2091 31.3452C63.2091 30.8816 63.2091 30.4181 63.2091 29.8773Z" fill="white"/>
<path d="M15.6091 3.68658C17.6955 3.68658 19.7045 3.68658 21.8682 3.68658C21.8682 4.07288 21.9455 4.45917 21.9455 4.84546C21.9455 15.0436 21.9455 25.2418 21.9455 35.4399C21.9455 38.6848 20.3227 41.0025 17.2318 42.0069C13.9864 43.0885 10.5864 43.1658 7.41819 41.8524C4.32728 40.539 2.62728 38.144 2.70455 34.7446C2.70455 33.5084 2.70455 32.195 2.70455 30.9589C2.70455 30.1091 2.93637 29.8 3.78637 29.8C5.25455 29.8773 6.64546 29.8773 8.11364 29.8C8.88637 29.8 9.19546 30.1091 9.19546 30.8816C9.11819 32.6586 9.19546 34.4355 9.19546 36.2125C9.19546 38.2985 10.4318 39.6891 12.2091 39.8437C14.0636 39.9982 15.5318 38.6075 15.6864 36.5215C15.7636 35.5172 15.6091 34.4355 15.6091 33.4312C15.6091 23.9284 15.6091 14.4255 15.6091 4.92272C15.5318 4.53643 15.5318 4.15014 15.6091 3.68658Z" fill="white"/>
<path d="M0 3.68658C3.94091 3.68658 7.72727 3.68658 11.7455 3.68658C9.81364 8.09033 7.95909 12.3396 5.87273 17.0523C3.86364 12.4168 1.93182 8.16759 0 3.68658Z" fill="white"/>
<path d="M9.58188 21.9969C9.58188 24.0829 7.95915 25.7826 5.87279 25.7053C3.78642 25.7053 2.1637 24.0057 2.1637 21.9197C2.1637 19.9109 3.78642 18.2885 5.79551 18.2885C7.88188 18.2885 9.58188 19.9109 9.58188 21.9969Z" fill="white"/>
<path d="M363.877 42.3159C356.691 42.3159 352.518 37.7576 352.518 31.4997C352.518 28.9502 353.214 26.7096 354.914 23.4648L365.886 3.53204H368.977L359.164 21.3015C360.632 20.6835 362.255 20.3744 364.109 20.3744C371.064 20.3744 375.159 25.1645 375.159 31.1134C375.159 37.2941 371.064 42.3159 363.877 42.3159ZM363.8 22.8467C358.777 22.8467 355.609 26.1688 355.609 31.4224C355.609 36.5988 358.777 39.9981 363.8 39.9981C368.823 39.9981 372.068 36.676 372.068 31.4224C372.068 26.7869 369.286 22.8467 363.8 22.8467Z" fill="white"/>
<path d="M394.555 42.3159C387.986 42.3159 383.35 38.0667 383.35 32.0405V13.4212C383.35 7.39498 387.986 3.14575 394.555 3.14575C401.123 3.14575 405.759 7.39498 405.759 13.4212V32.0405C405.759 38.0667 401.123 42.3159 394.555 42.3159ZM402.745 13.7302C402.745 9.17193 399.886 5.61803 394.555 5.61803C389.223 5.61803 386.364 9.17193 386.364 13.7302V31.8087C386.364 36.367 389.223 39.9209 394.555 39.9209C399.886 39.9209 402.745 36.367 402.745 31.8087V13.7302Z" fill="white"/>
<path d="M425.386 42.3159C418.818 42.3159 414.182 38.0667 414.182 32.0405V13.4212C414.182 7.39498 418.818 3.14575 425.386 3.14575C431.955 3.14575 436.591 7.39498 436.591 13.4212V32.0405C436.668 38.0667 432.032 42.3159 425.386 42.3159ZM433.577 13.7302C433.577 9.17193 430.718 5.61803 425.386 5.61803C420.055 5.61803 417.196 9.17193 417.196 13.7302V31.8087C417.196 36.367 420.055 39.9209 425.386 39.9209C430.718 39.9209 433.577 36.367 433.577 31.8087V13.7302Z" fill="white"/>
</svg>
