<svg width="459" height="43" viewBox="0 0 459 43" fill="none" xmlns="http://www.w3.org/2000/svg">
<path d="M97.2864 42.2729C96.2819 42.0411 95.2773 41.9638 94.3501 41.6548C92.1864 40.8822 90.1001 39.8778 88.0137 39.028C86.9319 38.5644 85.8501 38.2554 84.7682 37.7919C83.7637 37.3283 82.5273 36.942 81.9864 36.1694C80.441 34.0062 79.1273 31.6112 77.9682 29.2161C77.5819 28.4436 77.7364 27.2074 77.9682 26.3576C78.3546 25.0442 78.5864 23.808 78.5864 22.4174C78.5864 14.0734 82.2955 7.89275 89.5592 3.79804C90.4864 3.25723 91.3364 2.5619 92.0319 1.78931C92.9592 0.70769 93.9637 0.0123614 95.3546 0.0123614C97.9819 0.0123614 100.532 -0.0648973 103.159 0.166879C104.086 0.244137 104.936 1.09398 105.709 1.71205C106.636 2.40738 107.409 3.33448 108.414 3.8753C115.909 8.20178 119.618 14.537 119.386 23.1127C119.386 23.9626 119.541 24.8897 119.85 25.6622C120.546 27.2074 120.546 28.6753 119.773 30.1432C119.232 31.2249 118.768 32.3838 118.073 33.3881C117.609 34.0834 117.764 34.4697 118.305 35.0105C120.159 36.7875 122.014 38.719 123.868 40.4959C124.486 41.114 124.718 41.5775 124.023 42.2729C120.623 42.2729 117.223 42.2729 113.823 42.2729C113.436 41.9638 113.05 41.7321 112.664 41.423C108.336 37.1738 104.086 32.9246 99.8364 28.6753C99.4501 28.289 99.141 27.5937 99.0637 26.9756C98.9864 25.6622 99.0637 24.2716 98.9864 22.9582C98.9864 22.2629 99.2955 21.9538 99.991 21.9538C101.15 21.9538 102.386 22.0311 103.546 21.9538C104.627 21.8766 105.477 22.1856 106.173 23.0355C107.255 24.2716 108.414 25.3532 109.727 26.7439C111.427 22.0311 110.964 17.9364 107.873 14.4597C104.627 10.6741 100.377 9.43792 95.5864 10.8286C90.3319 12.2965 86.7773 17.3956 87.1637 22.6492C87.6273 28.3663 91.8001 32.77 97.5182 33.5426C98.2137 33.6199 99.0637 33.9289 99.6046 34.3925C101.768 36.4012 103.855 38.5644 106.018 40.7277C106.559 41.2685 106.791 41.8093 106.173 42.3501C103.236 42.2729 100.3 42.2729 97.2864 42.2729Z" fill="white"/>
<path d="M280.5 42.2728C279.727 42.1183 278.877 41.9638 278.105 41.8093C271.382 40.4186 267.209 35.6286 267.055 28.8298C266.9 20.5631 266.977 12.2964 266.977 4.02977C266.977 3.25718 267.209 2.79363 268.136 2.79363C270.686 2.79363 273.314 2.87089 275.864 2.79363C277.1 2.79363 277.023 3.56621 277.023 4.3388C277.023 11.6011 277.023 18.9407 277.023 26.203C277.023 27.5164 277.177 28.8298 277.486 30.0659C278.105 32.461 279.727 33.4653 282.432 33.3881C284.827 33.3108 286.218 32.1519 286.682 29.7569C286.836 28.8298 286.914 27.9027 286.914 26.8983C286.914 19.4042 286.914 11.9102 286.914 4.41606C286.914 3.17992 287.223 2.71637 288.536 2.71637C290.932 2.79363 293.327 2.79363 295.723 2.71637C296.573 2.71637 296.959 3.0254 296.959 3.95251C296.882 12.0647 297.114 20.2541 296.805 28.3663C296.496 36.3239 292.168 40.8049 284.209 41.9638C283.977 41.9638 283.746 42.1183 283.436 42.1956C282.432 42.2728 281.427 42.2728 280.5 42.2728Z" fill="white"/>
<path d="M138.936 42.2729C138.009 42.1184 137.082 41.8866 136.155 41.7321C129.973 40.3414 125.723 35.4741 125.568 29.2162C125.414 20.8722 125.491 12.451 125.491 4.1071C125.491 3.10274 125.877 2.87096 126.805 2.87096C129.2 2.94822 131.595 2.94822 133.991 2.87096C135.15 2.87096 135.459 3.33451 135.459 4.41613C135.459 11.7557 135.459 19.1725 135.459 26.5121C135.459 27.7483 135.614 29.0617 135.923 30.2205C136.541 32.6156 138.241 33.6199 141.023 33.4654C143.264 33.3109 144.655 32.0747 145.118 29.757C145.273 28.7526 145.35 27.7483 145.35 26.8212C145.35 19.4043 145.427 11.9875 145.35 4.57065C145.35 3.25725 145.736 2.7937 147.05 2.87096C149.368 2.94822 151.764 2.94822 154.082 2.87096C154.855 2.87096 155.318 3.02548 155.318 3.95258C155.241 12.5283 155.395 21.0268 155.086 29.5252C154.777 36.4785 149.986 41.114 143.032 42.0411C142.723 42.1184 142.414 42.1956 142.027 42.2729C141.023 42.2729 139.941 42.2729 138.936 42.2729Z" fill="white"/>
<path d="M343.786 22.1084C343.786 27.98 343.786 33.929 343.786 39.8006C343.786 41.423 343.709 41.5003 342.086 41.5003C340.155 41.5003 338.145 41.5003 336.214 41.5003C335.209 41.5003 334.823 41.114 334.823 40.1097C334.823 34.1607 334.823 28.2118 334.823 22.2629C334.823 21.9539 334.9 21.6448 334.823 21.3358C334.745 20.9495 334.745 20.3314 334.359 20.2542C333.973 20.1769 333.586 20.6405 333.355 20.9495C331.655 23.499 330.032 26.0486 328.332 28.5981C327.018 30.6068 325.705 32.6928 324.314 34.7015C323.386 36.1695 323.077 36.1695 322.073 34.6243C319.214 30.2205 316.355 25.8168 313.495 21.4131C313.341 21.104 313.109 20.795 312.877 20.5632C312.723 20.4087 312.336 20.1769 312.259 20.2542C312.027 20.3314 311.795 20.6405 311.795 20.9495C311.718 21.2585 311.795 21.6448 311.795 21.9539C311.795 27.8255 311.795 33.7744 311.795 39.6461C311.795 41.3458 311.718 41.423 310.095 41.423C308.164 41.423 306.155 41.423 304.223 41.423C303.218 41.423 302.832 41.114 302.832 40.0324C302.832 28.0573 302.832 16.0049 302.832 4.02985C302.832 3.02548 303.218 2.71645 304.145 2.79371C306.232 2.87097 308.318 2.87097 310.405 2.79371C311.486 2.71645 312.105 3.18 312.645 4.02985C315.814 8.9744 319.059 13.8417 322.227 18.7863C323.232 20.4087 323.386 20.4087 324.468 18.709C327.714 13.8417 330.882 8.89714 334.05 3.95259C334.591 3.10274 335.132 2.71645 336.136 2.79371C338.068 2.87097 340.077 2.79371 342.009 2.79371C343.786 2.79371 343.786 2.79371 343.786 4.4934C343.786 10.3651 343.786 16.2367 343.786 22.1084Z" fill="white"/>
<path d="M232.05 22.1856C232.05 28.0572 232.05 33.9289 232.05 39.7233C232.05 41.3457 231.895 41.5002 230.273 41.423C228.418 41.423 226.486 41.3457 224.632 41.423C223.395 41.5002 222.7 41.0367 222.082 40.0323C218.064 33.8516 214.045 27.6709 209.95 21.4902C209.795 21.1812 209.641 20.8722 209.332 20.6404C209.177 20.4859 208.791 20.2541 208.559 20.3314C208.327 20.4086 208.25 20.7949 208.173 21.0267C208.095 21.3357 208.173 21.6448 208.173 21.9538C208.173 27.9027 208.173 33.8516 208.173 39.8005C208.173 41.423 208.095 41.5002 206.473 41.5002C204.618 41.5002 202.841 41.5002 200.986 41.5002C199.209 41.5002 199.132 41.423 199.132 39.7233C199.132 29.5251 199.132 19.327 199.132 9.12885C199.132 7.58368 199.209 6.0385 199.132 4.41607C199.054 3.25719 199.441 2.79364 200.677 2.79364C202.532 2.8709 204.464 2.94816 206.318 2.79364C207.709 2.71638 208.482 3.25719 209.254 4.41607C213.195 10.5968 217.291 16.7002 221.309 22.8809C221.464 23.0354 221.541 23.2672 221.695 23.4217C222.004 23.6535 222.236 24.117 222.623 23.9625C223.009 23.8853 223.086 23.2672 223.086 22.9582C223.164 20.6404 223.086 18.3999 223.086 16.0821C223.086 12.1419 223.086 8.20175 223.086 4.26155C223.086 3.17993 223.395 2.79364 224.477 2.79364C226.486 2.8709 228.573 2.8709 230.659 2.79364C231.818 2.71638 232.127 3.25719 232.127 4.33881C232.05 10.2877 232.05 16.2366 232.05 22.1856Z" fill="white"/>
<path d="M161.423 41.423C160.341 41.423 159.259 41.423 158.177 41.423C156.786 41.423 156.632 41.114 157.095 39.8779C158.486 36.4012 159.955 32.9246 161.345 29.3707C164.745 21.0268 168.145 12.6828 171.545 4.33888C172.009 3.25726 172.55 2.71645 173.786 2.79371C175.332 2.87097 176.8 2.87097 178.345 2.79371C179.427 2.71645 179.891 3.18 180.277 4.1071C184.218 13.8417 188.159 23.5763 192.1 33.2336C193.027 35.4741 193.955 37.6374 194.805 39.8779C195.268 41.114 195.114 41.3458 193.8 41.3458C191.636 41.3458 189.473 41.3458 187.232 41.3458C186.227 41.3458 185.764 40.9595 185.377 40.0324C182.673 33.3881 179.968 26.6666 177.264 20.0224C177.109 19.6361 176.955 19.1725 176.723 18.8635C176.491 18.4772 176.182 18.1682 175.873 17.7819C175.564 18.1682 175.177 18.4772 174.945 18.9408C172.086 25.8941 169.227 32.8473 166.445 39.8006C165.982 41.0368 165.286 41.5003 163.973 41.3458C163.277 41.3458 162.35 41.423 161.423 41.423Z" fill="white"/>
<path d="M26.7363 41.2685C26.7363 28.4435 26.7363 15.6959 26.7363 2.87091C27.7409 2.87091 28.6681 2.87091 29.6727 2.87091C32.8409 2.87091 36.0091 2.87091 39.2545 2.87091C43.0409 2.87091 45.7454 5.57496 45.8227 9.36064C45.8227 11.1376 45.8227 12.9145 45.8227 14.6915C45.9 17.3183 44.9727 19.4815 42.5772 21.0267C45.2818 21.9538 45.9772 23.8853 45.9 26.4348C45.7454 29.5252 45.9 32.6155 45.9 35.6286C45.9 38.7189 44.2772 40.9594 41.1863 41.1912C36.3954 41.5003 31.6045 41.2685 26.7363 41.2685ZM33.15 22.7264C33.15 23.3445 33.15 23.8853 33.15 24.3488C33.15 27.8255 33.15 31.3794 33.15 34.856C33.15 38.2554 33.15 38.2554 36.55 38.1781C38.4045 38.1009 39.1 37.6373 39.1772 35.8604C39.3318 32.3837 39.2545 28.9843 39.2545 25.5077C39.2545 24.9669 39.1772 24.4261 38.9454 24.0398C38.5591 23.499 38.0181 22.9582 37.4 22.8809C36.0091 22.6491 34.6954 22.7264 33.15 22.7264ZM39.4091 12.8373C39.3318 11.4466 39.2545 10.1332 39.1 8.81983C38.8681 7.12014 38.25 6.57933 36.55 6.50207C35.7772 6.50207 35.0045 6.57933 34.2318 6.50207C33.3818 6.42481 33.0727 6.8111 33.15 7.58369C33.2272 10.365 33.15 13.2236 33.15 16.0049C33.15 19.4815 33.15 19.4815 36.6272 19.4043C38.3272 19.327 38.9454 18.8635 39.1 17.1638C39.3318 15.7731 39.3318 14.3052 39.4091 12.8373Z" fill="white"/>
<path d="M254.459 26.5121C254.459 30.9158 254.459 35.3196 254.459 39.8006C254.459 41.423 254.382 41.423 252.759 41.5003C250.595 41.5003 248.509 41.5003 246.345 41.5003C244.491 41.5003 244.491 41.5003 244.491 39.5688C244.491 30.9931 244.491 22.4174 244.491 13.8416C244.491 11.6011 244.491 11.6011 242.173 11.6011C240.859 11.6011 239.545 11.6011 238.232 11.6011C237.227 11.6011 236.686 11.2921 236.764 10.2105C236.841 8.20176 236.841 6.11578 236.764 4.10705C236.764 3.2572 237.073 2.87091 237.923 2.87091C245.573 2.87091 253.223 2.87091 260.95 2.87091C261.877 2.87091 262.186 3.2572 262.186 4.10705C262.186 6.11578 262.109 8.20176 262.186 10.2105C262.186 11.2148 261.8 11.6011 260.795 11.6011C259.25 11.5239 257.627 11.6784 256.082 11.6011C254.691 11.5239 254.382 12.0647 254.382 13.3008C254.536 17.7046 254.459 22.1083 254.459 26.5121Z" fill="white"/>
<path d="M63.2091 29.1389C65.3727 29.1389 67.4591 29.1389 69.5455 29.1389C69.5455 33.2336 69.5455 37.251 69.5455 41.3457C63.2091 41.3457 56.8727 41.3457 50.4591 41.3457C50.4591 28.5208 50.4591 15.7731 50.4591 2.94818C52.5455 2.94818 54.5546 2.94818 56.7955 2.94818C56.7955 3.48899 56.7955 3.95254 56.7955 4.49335C56.7955 14.7688 56.7955 25.0442 56.7955 35.3196C56.7955 36.0149 56.8727 36.7875 57.1818 37.4056C57.8 38.719 59.2682 39.337 60.7364 38.9507C62.1273 38.6417 63.1318 37.4056 63.2091 35.9376C63.2864 34.1607 63.2091 32.3837 63.2091 30.6068C63.2091 30.1432 63.2091 29.6797 63.2091 29.1389Z" fill="white"/>
<path d="M15.6091 2.87091C17.6955 2.87091 19.7045 2.87091 21.8682 2.87091C21.8682 3.2572 21.9455 3.6435 21.9455 4.02979C21.9455 14.2279 21.9455 24.4261 21.9455 34.6242C21.9455 37.8691 20.3227 40.1869 17.2318 41.1912C13.9864 42.2728 10.5864 42.3501 7.41819 41.0367C4.32728 39.7233 2.62728 37.3283 2.70455 33.9289C2.70455 32.6928 2.70455 31.3794 2.70455 30.1432C2.70455 29.2934 2.93637 28.9843 3.78637 28.9843C5.25455 29.0616 6.64546 29.0616 8.11364 28.9843C8.88637 28.9843 9.19546 29.2934 9.19546 30.066C9.11819 31.8429 9.19546 33.6199 9.19546 35.3968C9.19546 37.4828 10.4318 38.8735 12.2091 39.028C14.0636 39.1825 15.5318 37.7918 15.6864 35.7059C15.7636 34.7015 15.6091 33.6199 15.6091 32.6155C15.6091 23.1127 15.6091 13.6099 15.6091 4.10705C15.5318 3.72076 15.5318 3.33446 15.6091 2.87091Z" fill="white"/>
<path d="M0 2.94818C3.94091 2.94818 7.72727 2.94818 11.7455 2.94818C9.81364 7.27467 7.95909 11.6012 5.87273 16.2367C3.86364 11.6784 1.93182 7.35193 0 2.94818Z" fill="white"/>
<path d="M9.58188 21.2585C9.58188 23.3444 7.95915 25.0441 5.87279 24.9669C3.78642 24.9669 2.1637 23.2672 2.1637 21.1812C2.1637 19.1725 3.78642 17.55 5.79551 17.55C7.88188 17.55 9.58188 19.0952 9.58188 21.2585Z" fill="white"/>
<path d="M391.464 22.34C391.386 32.3064 384.741 41.8865 371.296 41.8865C357.85 41.8865 351.127 32.2291 351.127 22.2628C351.127 12.0646 357.773 2.79358 371.296 2.79358C384.818 2.79358 391.541 12.1419 391.464 22.34ZM354.141 22.2628C354.218 30.8385 359.936 39.1052 371.296 39.1052C382.732 39.1052 388.45 30.7612 388.45 22.2628C388.45 13.5325 382.732 5.42037 371.296 5.42037C359.859 5.42037 354.141 13.378 354.141 22.2628Z" fill="white"/>
<path d="M426.082 41.1912L401.586 7.73818V41.1912H398.341V2.71637H401.586L426.005 36.0921V2.71637H429.25V41.1912H426.082Z" fill="white"/>
<path d="M438.059 41.1912V2.71637H459V5.34317H441.073V20.5631H458.15V23.1899H441.073V38.6417H459V41.2685H438.059V41.1912Z" fill="white"/>
</svg>
