<svg width="63" height="63" viewBox="0 0 63 63" fill="none" xmlns="http://www.w3.org/2000/svg">
<path d="M31.5 63C48.897 63 63 48.897 63 31.5C63 14.103 48.897 0 31.5 0C14.103 0 0 14.103 0 31.5C0 48.897 14.103 63 31.5 63Z" fill="#00FEFF"/>
<path d="M11.2276 26.1249C10.8319 25.7566 10.8183 25.129 11.2003 24.7471C16.5753 19.4402 24.2014 16.5208 32.2912 16.7391C39.7126 16.93 46.7793 19.7949 51.8133 24.6516C52.2089 25.0199 52.1953 25.6611 51.7997 26.0294C51.4177 26.3978 50.8311 26.3841 50.4491 26.0158C45.7562 21.5138 39.1806 18.84 32.2503 18.6626C24.7061 18.4716 17.5712 21.1728 12.5782 26.1113C12.1962 26.4796 11.5959 26.4796 11.2276 26.1249Z" fill="black"/>
<path d="M19.0309 34.092L18.7717 33.7646C18.5125 33.4372 18.5534 32.9461 18.8672 32.6869C22.7007 29.4809 27.3936 27.7893 32.1548 27.9121C36.4112 28.0212 40.4629 29.5355 43.9144 32.2912C44.2282 32.5504 44.2828 33.0279 44.0372 33.369L43.7916 33.6964C43.5461 34.0102 43.1232 34.0647 42.8094 33.8192C39.658 31.3226 35.9746 29.9448 32.1002 29.8356C27.7483 29.7265 23.4919 31.2544 19.9995 34.1739C19.6994 34.4331 19.2765 34.4058 19.0309 34.092Z" fill="black"/>
<path d="M38.0892 40.7767L37.9255 40.5448C37.2706 39.6171 36.4248 38.8395 35.4562 38.2802C35.4562 38.2802 35.4562 38.2802 35.4698 38.2666C35.3471 38.1983 35.2243 38.1438 35.0879 38.0756C34.6513 37.8573 34.1738 37.6799 33.6963 37.5708C33.3007 37.4753 32.9187 37.4207 32.5368 37.4071C31.841 37.3525 31.118 37.4071 30.3949 37.5708C28.6487 37.9801 27.1617 39.0851 26.1113 40.5312L25.9339 40.7631C25.852 40.8722 25.8657 41.0223 25.9475 41.1178L31.4454 47.4614L31.8001 47.9253C31.8683 48.0071 31.9638 48.0344 32.0593 48.0344C32.1548 48.0481 32.2503 48.0071 32.3185 47.9253L32.7823 47.3114L38.0892 41.1178C38.171 41.0223 38.171 40.8859 38.0892 40.7767ZM35.5653 41.1041L32.3731 44.8285C32.3185 44.8967 32.1957 44.9649 32.0729 44.9922C31.9774 45.0195 31.8274 44.9785 31.7592 44.8967L28.485 41.1041C28.3759 40.9814 28.3895 40.804 28.5123 40.6949C29.4672 39.8218 30.7223 39.317 32.0456 39.317C32.223 39.317 32.3867 39.3306 32.564 39.3443C33.6691 39.4671 34.7468 39.9446 35.5517 40.6949C35.6608 40.804 35.6745 40.9814 35.5653 41.1041Z" fill="black"/>
</svg>
