<svg width="63" height="63" viewBox="0 0 63 63" fill="none" xmlns="http://www.w3.org/2000/svg">
<path d="M31.5 63C48.8969 63 63 48.897 63 31.5C63 14.103 48.8969 0 31.5 0C14.103 0 0 14.103 0 31.5C0 48.897 14.103 63 31.5 63Z" fill="#00FEFF"/>
<path d="M31.6501 15.5385C32.6187 15.6613 33.6965 15.7705 34.7606 15.9205C35.5791 16.0433 36.2748 16.4253 36.766 17.1074C37.2844 17.8304 37.9528 18.3489 38.7577 18.7854C43.0823 21.1728 45.688 24.8562 46.5475 29.6992C46.7657 30.8861 46.6293 32.1275 46.7112 33.3553C46.7384 33.8192 46.8476 34.2967 47.0386 34.7196C47.5706 35.8519 47.5161 36.9296 47.0522 38.0756C46.3974 39.6717 45.5379 41.1451 44.5148 42.5366C43.6826 43.6689 42.6321 44.2828 41.2406 44.4192C40.8314 44.4602 40.3948 44.6375 40.0264 44.8694C34.5013 48.28 28.9353 48.3618 23.3419 45.0468C22.6871 44.6648 22.0459 44.3919 21.3093 44.3237C20.3543 44.2282 19.5903 43.8053 18.9628 43.055C17.5576 41.377 16.4662 39.508 15.7705 37.4207C15.5386 36.725 15.4977 36.0292 15.7978 35.3608C16.248 34.3649 16.3162 33.3417 16.3162 32.264C16.3571 26.5342 18.9082 22.1823 23.7103 19.0992C23.7512 19.0719 23.7922 19.0446 23.8331 19.0173C24.9108 18.5535 25.7703 17.8577 26.4524 16.9028C27.0117 16.1388 27.8985 15.9342 28.7852 15.825C29.7129 15.7023 30.6269 15.634 31.6501 15.5385ZM31.541 17.312C30.6406 17.4075 29.7538 17.5167 28.8671 17.5985C28.2668 17.6531 27.8439 17.9259 27.4892 18.4034C26.9845 19.0855 26.3978 19.6722 25.6202 20.0814C20.5044 22.7962 17.9942 27.0799 18.0761 32.8506C18.0897 33.7646 17.9942 34.5968 17.6395 35.4153C17.5849 35.5381 17.5167 35.6609 17.5031 35.7837C17.4758 36.1793 17.3803 36.6022 17.5031 36.9569C18.0761 38.744 19.031 40.3402 20.2315 41.7863C20.6272 42.2637 21.0773 42.5093 21.6776 42.5639C22.4552 42.6457 23.2055 42.8094 23.8876 43.2596C28.4578 46.3701 34.4604 46.3837 39.0579 43.3278C39.6172 42.9595 40.2038 42.7412 40.8586 42.6321C41.5408 42.523 42.2229 42.4957 42.7413 41.8681C43.9282 40.4084 44.8831 38.8259 45.5106 37.0524C45.688 36.5613 45.7016 36.1111 45.4834 35.6336C45.0604 34.7196 44.8831 33.7646 44.9513 32.7414C45.0059 31.9775 44.965 31.1999 44.8558 30.4495C44.2146 25.9476 41.8954 22.5643 37.9392 20.3406C36.9433 19.7813 36.0975 19.1401 35.4017 18.2534C35.1698 17.9532 34.7333 17.7077 34.3513 17.6258C33.4373 17.4757 32.4823 17.4075 31.541 17.312Z" fill="black"/>
<path d="M30.7087 41.6498C29.6719 41.6362 28.0076 41.1587 26.4523 40.2447C26.0158 39.9855 25.511 39.8081 25.0199 39.699C24.4742 39.5762 24.0104 39.3579 23.6284 38.935C22.7007 37.8846 22.005 36.6841 21.5411 35.3608C21.3228 34.7605 21.3638 34.1875 21.5548 33.5873C21.7048 33.1371 21.8003 32.646 21.8003 32.1685C21.8413 28.1304 23.6284 25.1563 27.1617 23.2055C27.3391 23.11 27.5574 23.0009 27.6665 22.8235C28.335 21.7458 29.3991 21.4047 30.5587 21.3911C31.5682 21.3774 32.5777 21.4729 33.5873 21.5548C34.1875 21.6094 34.6241 21.9641 35.0333 22.387C35.388 22.7553 35.7837 23.0964 36.2202 23.3556C39.6854 25.4565 41.377 28.5123 41.2269 32.5777C41.2133 32.8779 41.3361 33.1916 41.4452 33.4645C41.7317 34.133 41.7863 34.8151 41.4588 35.4563C40.9268 36.4931 40.3402 37.5162 39.7399 38.5121C39.2761 39.2761 38.553 39.6308 37.6663 39.7399C37.3661 39.7809 37.066 39.9036 36.8205 40.0673C35.1834 41.1178 33.4099 41.6635 30.7087 41.6498ZM39.3579 32.1412C39.4125 32.1275 39.4534 32.1139 39.508 32.1003C39.4398 28.9353 38.0756 26.5069 35.3062 24.9244C34.7196 24.5834 34.1875 24.2287 33.7646 23.683C33.6145 23.492 33.3281 23.301 33.0825 23.2874C32.0866 23.2328 31.0771 23.2055 30.0675 23.2601C29.7811 23.2737 29.4809 23.5602 29.2217 23.7512C28.7579 24.0923 28.3623 24.5424 27.8575 24.8289C25.0199 26.4387 23.5875 28.867 23.5602 32.1139C23.5602 32.8506 23.5056 33.5327 23.2328 34.2148C23.1646 34.4058 23.1509 34.6923 23.2464 34.856C23.7375 35.7837 24.2696 36.6977 24.8289 37.5981C24.9517 37.7891 25.2382 37.8846 25.4701 37.9664C26.0158 38.1711 26.616 38.2666 27.0935 38.5667C30.0675 40.3266 33.0143 40.3266 35.9747 38.5531C36.3703 38.3211 36.8478 38.2256 37.2843 38.0483C37.6117 37.9255 38.0483 37.8437 38.212 37.6117C38.7986 36.7523 39.3034 35.8382 39.7808 34.9242C39.89 34.7196 39.8354 34.3922 39.7945 34.133C39.6581 33.4645 39.4944 32.8097 39.3579 32.1412Z" fill="black"/>
<path d="M35.9746 32.1958C35.961 34.5559 33.9965 36.5204 31.6227 36.534C29.2217 36.534 27.2572 34.5695 27.2572 32.1685C27.2572 29.7811 29.2626 27.7757 31.6364 27.8166C34.051 27.8439 35.9882 29.7947 35.9746 32.1958ZM31.6091 34.7469C33.0552 34.7469 34.1875 33.6282 34.2011 32.1821C34.2147 30.736 33.0688 29.5764 31.6091 29.5764C30.1903 29.5764 29.0307 30.7497 29.0307 32.1685C29.0307 33.6009 30.1766 34.7469 31.6091 34.7469Z" fill="black"/>
</svg>
