<svg width="50" height="48" viewBox="0 0 50 48" fill="none" xmlns="http://www.w3.org/2000/svg">
<path d="M0 0C15.3547 0 30.7095 0 46.0642 0C46.0642 0.15642 46.054 0.323267 46.054 0.479687C46.054 12.9828 46.054 25.486 46.054 37.9891C46.054 38.1351 46.054 38.2707 46.054 38.4167C30.689 38.4167 15.3752 38.4167 0.0204457 38.4167C0.0204457 38.2498 0.0204457 38.1038 0.0204457 37.9579C0.0204457 25.4547 0.0204457 12.9516 0.0204457 0.448403C0.0204457 0.291984 0.0102229 0.145992 0 0ZM26.9679 18.6974C27.8573 18.1864 28.2764 17.3417 28.256 16.2468C28.2458 15.4438 28.256 14.6305 28.256 13.8275C28.256 12.3154 27.111 11.1475 25.6287 11.1371C24.0033 11.1371 22.3778 11.1371 20.7524 11.1371C20.64 11.1371 20.5377 11.1475 20.4355 11.1579C20.4253 11.2309 20.415 11.2622 20.415 11.2935C20.415 16.5388 20.415 21.7841 20.4048 27.0293C20.4048 27.2379 20.4764 27.3005 20.6808 27.3005C21.5191 27.29 22.3676 27.3005 23.2161 27.3005C24.218 27.29 25.2198 27.3109 26.2114 27.2275C27.4075 27.1336 28.3173 26.1742 28.2764 24.9542C28.2253 23.4525 28.256 21.9405 28.2662 20.4284C28.2662 20.0113 28.1538 19.6359 27.8573 19.3648C27.5915 19.0936 27.2541 18.9059 26.9679 18.6974ZM32.7643 11.1371C31.9567 11.1371 31.2104 11.1475 30.4641 11.1267C30.1881 11.1162 30.1165 11.1997 30.1165 11.4812C30.1268 16.6326 30.1268 21.7841 30.1165 26.9355C30.1165 27.217 30.2085 27.29 30.4743 27.29C32.8767 27.2796 35.2893 27.2796 37.6917 27.29C37.9779 27.29 38.0699 27.217 38.0699 26.9146C38.0597 25.4234 38.0597 23.9426 38.0597 22.4514C38.0597 22.3367 38.0393 22.222 38.029 22.1073C37.1499 22.1073 36.3014 22.1073 35.412 22.1073C35.412 22.2429 35.412 22.3576 35.412 22.4723C35.412 23.2544 35.4222 24.0469 35.412 24.829C35.4018 25.3817 35.1871 25.8405 34.6862 26.1117C33.7865 26.5809 32.7643 25.924 32.7643 24.8603C32.7643 20.4284 32.7643 15.9965 32.7643 11.5751C32.7643 11.4499 32.7643 11.3144 32.7643 11.1371ZM15.8557 11.1475C15.8557 11.3248 15.8557 11.4604 15.8557 11.5959C15.8557 15.9235 15.8557 20.2407 15.8557 24.5683C15.8557 24.6518 15.8557 24.7352 15.8557 24.8186C15.8352 25.6633 15.2832 26.2577 14.5062 26.2472C13.7395 26.2368 13.2079 25.6633 13.2079 24.8082C13.2079 24.0261 13.2079 23.2335 13.2079 22.4514C13.2079 22.3367 13.1977 22.222 13.1875 22.0865C12.3799 22.0865 11.6132 22.0969 10.8465 22.076C10.6011 22.076 10.55 22.1699 10.55 22.3993C10.5602 22.9728 10.5807 23.5464 10.55 24.1199C10.4784 25.559 11.3985 26.6852 12.5639 27.144C13.76 27.6237 14.9867 27.6133 16.2135 27.29C17.7367 26.8833 18.4932 25.8718 18.4932 24.2659C18.4932 20.053 18.4932 15.8297 18.4932 11.6168C18.4932 11.4604 18.4829 11.3039 18.4727 11.1371C17.5935 11.1475 16.745 11.1475 15.8557 11.1475ZM14.312 11.1475C12.6661 11.1475 11.0918 11.1475 9.45614 11.1475C10.2638 13.0141 11.0509 14.8494 11.8483 16.6743C11.879 16.6743 11.8994 16.6743 11.9301 16.6639C12.707 14.8494 13.5044 13.0246 14.312 11.1475ZM10.3558 18.8434C10.3558 19.6985 11.0407 20.4076 11.879 20.4076C12.707 20.4076 13.4124 19.688 13.4124 18.8434C13.4124 17.9883 12.7172 17.2896 11.879 17.2792C11.0509 17.2792 10.3558 17.9883 10.3558 18.8434Z" fill="white"/>
<path d="M50.0001 37.2279C49.9695 37.353 49.9388 37.4677 49.9081 37.5929C49.7241 38.1768 49.1005 38.5731 48.4871 38.4792C47.884 38.3854 47.4137 37.8536 47.3933 37.2383C47.3728 36.5709 47.792 36.0495 48.4054 35.8931C49.1618 35.7054 49.8774 36.3207 49.9388 36.9255C49.949 36.988 49.9797 37.0402 50.0001 37.1027C50.0001 37.1445 50.0001 37.1862 50.0001 37.2279ZM47.5978 37.1549C47.5978 37.791 48.0476 38.2811 48.6609 38.2915C49.2641 38.302 49.7548 37.8119 49.765 37.1966C49.7752 36.5918 49.2743 36.0808 48.6814 36.0808C48.0782 36.0704 47.5978 36.5501 47.5978 37.1549Z" fill="white"/>
<path d="M32.1201 47.2179C31.8952 47.2179 31.7214 47.2388 31.5476 47.2179C31.1694 47.1762 30.9956 46.9676 30.9956 46.5505C30.9854 45.4243 30.9956 44.2981 30.9956 43.1718C30.9956 43.0571 30.9854 42.9529 30.9036 42.8277C30.648 43.3074 30.3822 43.7767 30.1267 44.2563C29.636 45.1636 29.1453 46.0812 28.6546 46.9885C28.6035 47.0823 28.4808 47.2179 28.399 47.2075C28.2968 47.197 28.1741 47.0823 28.1128 46.9781C27.3869 45.6746 26.6713 44.3711 25.9557 43.0676C25.9046 42.9737 25.8535 42.8903 25.7206 42.8069C25.7206 43.5264 25.7206 44.2563 25.7206 44.9759C25.7206 45.7058 25.7206 46.4358 25.7206 47.197C25.5264 47.197 25.3628 47.197 25.1481 47.197C25.1481 47.1032 25.1379 46.9989 25.1379 46.9051C25.1379 45.1949 25.1481 43.4847 25.1277 41.7745C25.1277 41.4825 25.2299 41.4512 25.4855 41.4199C26.1091 41.3261 26.426 41.5868 26.702 42.1499C27.254 43.2761 27.8879 44.3606 28.491 45.466C28.5319 45.5494 28.5932 45.6224 28.6648 45.7476C28.7364 45.6224 28.8079 45.539 28.859 45.4347C29.5133 44.2042 30.1778 42.9841 30.832 41.7432C30.9547 41.5242 31.0876 41.4304 31.3432 41.4304C32.1201 41.4408 32.1201 41.4304 32.1201 42.2125C32.1201 43.7454 32.1201 45.2679 32.1201 46.8008C32.1201 46.9155 32.1201 47.0406 32.1201 47.2179Z" fill="white"/>
<path d="M19.9242 44.5796C19.9242 45.4452 19.9242 46.3107 19.9242 47.1971C19.5358 47.1971 19.178 47.1971 18.7895 47.1971C18.7793 47.0928 18.7793 46.9885 18.7793 46.8842C18.7793 45.174 18.7793 43.4638 18.769 41.7536C18.769 41.4929 18.8406 41.3991 19.0962 41.4095C19.8731 41.4304 20.6603 41.3887 21.4372 41.4512C21.8257 41.4825 22.2448 41.6077 22.5822 41.8058C23.4307 42.3063 23.4613 43.4117 22.664 43.9957C22.4186 44.1834 22.1221 44.2981 21.8155 44.4649C22.5311 45.3513 23.2569 46.2481 24.0031 47.1762C23.216 47.2805 22.5719 47.2283 22.1017 46.4984C21.7439 45.9353 21.2532 45.4556 20.8647 44.9029C20.6194 44.5692 20.3434 44.4858 19.9242 44.5796ZM19.9242 44.1208C20.7114 44.1938 21.1612 44.1208 21.519 43.8705C21.8666 43.6203 22.071 43.2866 21.9995 42.8382C21.9279 42.3793 21.5906 42.0144 21.1407 41.9414C20.8034 41.8892 20.4558 41.8892 20.1185 41.8892C20.0571 41.8892 19.9447 41.9831 19.9447 42.0352C19.914 42.7235 19.9242 43.4117 19.9242 44.1208Z" fill="white"/>
<path d="M6.05188 47.2075C5.64297 47.2075 5.29539 47.2075 4.90692 47.2075C4.90692 47.1032 4.8967 46.9989 4.8967 46.8946C4.8967 45.1844 4.90692 43.4743 4.88647 41.7641C4.88647 41.4721 4.9887 41.3991 5.24427 41.4199C5.49985 41.4408 5.75542 41.4199 6.04166 41.4199C6.04166 42.2959 6.04166 43.1197 6.04166 43.9852C6.16433 43.9957 6.26656 43.9957 6.36879 43.9957C7.1355 43.9957 7.91244 43.9852 8.67916 44.0061C8.93473 44.0061 9.02673 43.9435 9.01651 43.6724C8.99606 43.0259 9.01651 42.3793 9.00629 41.7328C8.99606 41.4929 9.08807 41.4304 9.31297 41.4199C10.1308 41.4095 10.1308 41.3991 10.1308 42.2229C10.1308 43.7454 10.1308 45.2574 10.1308 46.7799C10.1308 46.9155 10.1206 47.0511 10.1104 47.2075C9.89568 47.2075 9.71166 47.2283 9.52765 47.2075C9.18007 47.1553 9.00629 46.9468 9.00629 46.5714C9.00629 45.9665 9.01651 45.3617 8.99606 44.7569C8.99606 44.663 8.89384 44.4962 8.8325 44.4962C7.92266 44.4753 7.00261 44.4858 6.05188 44.4858C6.05188 45.4034 6.05188 46.2898 6.05188 47.2075Z" fill="white"/>
<path d="M45.3998 45.5077C45.41 45.3096 45.4203 45.1844 45.4203 45.0697C45.4203 44.0269 45.4203 42.9841 45.4203 41.9517C45.4203 41.4512 45.5123 41.3782 46.0234 41.4825C46.0234 43.3804 46.0234 45.2887 46.0234 47.2074C45.6861 47.3013 45.4509 47.1657 45.226 46.9259C44.0402 45.6433 42.8441 44.371 41.648 43.0988C41.5765 43.0258 41.5049 42.9528 41.372 42.8277C41.372 44.3293 41.372 45.758 41.372 47.2179C41.1369 47.2179 40.9426 47.2179 40.7075 47.2179C40.7075 47.0927 40.7075 46.9676 40.7075 46.8425C40.7075 45.2053 40.7075 43.5681 40.7075 41.9309C40.7075 41.7745 40.7586 41.4825 40.82 41.4721C41.0755 41.4303 41.3618 41.3365 41.5867 41.5763C42.0672 42.0769 42.5476 42.5774 43.0281 43.078C43.713 43.7871 44.398 44.5066 45.0829 45.2157C45.1647 45.2887 45.2567 45.3721 45.3998 45.5077Z" fill="white"/>
<path d="M17.5935 47.2283C17.338 47.2283 17.154 47.2179 16.97 47.2283C16.5917 47.2492 16.3361 47.0823 16.1726 46.7382C15.9988 46.3524 15.8045 45.977 15.6205 45.5911C15.549 45.4243 15.4467 45.3617 15.2627 45.3617C14.6494 45.3721 14.036 45.3617 13.4226 45.3617C13.5351 44.8507 13.576 44.809 14.0564 44.809C14.4142 44.809 14.7823 44.809 15.2218 44.809C14.8845 44.1104 14.5676 43.4743 14.2302 42.786C14.1484 42.9216 14.0973 43.005 14.0462 43.0988C13.4226 44.3293 12.7888 45.5599 12.1652 46.7904C11.9301 47.2596 11.9301 47.2596 11.3372 47.1762C11.4087 47.0198 11.4803 46.8633 11.5518 46.7174C12.4208 44.9967 13.2999 43.2761 14.1791 41.5555C14.2404 41.4408 14.3836 41.2844 14.4654 41.2948C14.5778 41.3052 14.7209 41.4512 14.7823 41.5659C15.6512 43.297 16.5201 45.0385 17.3789 46.7799C17.4504 46.9259 17.5118 47.0511 17.5935 47.2283Z" fill="white"/>
<path d="M36.1686 42.786C35.821 43.4847 35.5041 44.1104 35.1463 44.8195C35.5757 44.8195 35.9335 44.8195 36.2913 44.8195C36.782 44.8195 36.782 44.8195 36.966 45.3722C36.4037 45.3722 35.8619 45.393 35.3201 45.3617C34.9725 45.3409 34.7885 45.466 34.6556 45.7789C34.5023 46.1438 34.308 46.4775 34.1342 46.8321C33.8991 47.2909 33.8991 47.2909 33.3164 47.1866C33.4697 46.8842 33.6129 46.6027 33.756 46.3107C34.5636 44.7152 35.3712 43.1197 36.1788 41.5347C36.2299 41.4304 36.3628 41.3261 36.465 41.3157C36.5468 41.3052 36.6797 41.4304 36.7308 41.5242C37.6305 43.3178 38.5198 45.1115 39.4092 46.9155C39.4501 46.9989 39.4808 47.0928 39.5217 47.1762C38.7447 47.3848 38.3869 47.2283 38.0496 46.5401C37.4873 45.4034 36.9251 44.2668 36.3628 43.1301C36.3117 43.0363 36.2606 42.9424 36.1686 42.786Z" fill="white"/>
<path d="M0.32702 44.5797C0.32702 44.9133 0.32702 45.2575 0.32702 45.5912C0.39858 45.5912 0.429249 45.6016 0.439471 45.5912C0.746157 45.3618 1.06307 45.3096 1.3902 45.5495C1.64577 45.7372 1.73777 46.1438 1.63555 46.4984C1.52309 46.8842 1.26752 47.0928 0.858609 47.1032C0.705266 47.1137 0.5417 47.1032 0.39858 47.0615C0.32702 47.0407 0.224791 46.9468 0.224791 46.8842C0.204346 46.123 0.204346 45.3513 0.204346 44.5797C0.245237 44.5797 0.286129 44.5797 0.32702 44.5797ZM0.275906 46.3316C0.296351 46.3316 0.306574 46.342 0.32702 46.342C0.32702 46.4671 0.306574 46.6027 0.337243 46.7174C0.357689 46.8112 0.439471 46.9259 0.521254 46.9572C0.889277 47.0928 1.31864 46.8842 1.47198 46.5193C1.60488 46.1856 1.49243 45.758 1.21641 45.5912C0.97106 45.4347 0.633706 45.4869 0.439471 45.758C0.337243 45.904 0.32702 46.1334 0.275906 46.3316Z" fill="white"/>
<path d="M3.40422 45.4973C3.00553 46.3315 2.60684 47.1657 2.20815 48C2.17748 47.9896 2.14681 47.9687 2.10592 47.9583C2.24904 47.6559 2.38194 47.343 2.5455 47.0406C2.63751 46.8633 2.63751 46.7173 2.53528 46.5401C2.35127 46.2064 2.1877 45.8518 2.01392 45.5077C2.04458 45.4868 2.06503 45.4764 2.0957 45.4556C2.30016 45.831 2.49439 46.2064 2.71929 46.6235C2.93397 46.1959 3.11798 45.8205 3.31222 45.4451C3.34289 45.4556 3.37356 45.4764 3.40422 45.4973Z" fill="white"/>
<path d="M23.0935 19.469C23.6762 19.469 24.2487 19.4482 24.8212 19.4795C25.1483 19.4899 25.3834 19.7089 25.4652 20.0426C25.5368 20.3658 25.5981 20.6891 25.6083 21.0124C25.6288 22.1386 25.6186 23.2648 25.6083 24.391C25.6083 24.683 25.5572 24.9854 25.4857 25.267C25.3834 25.7154 25.1585 25.9031 24.7189 25.9135C24.1874 25.9344 23.6558 25.9135 23.1037 25.9135C23.0935 23.7654 23.0935 21.6276 23.0935 19.469Z" fill="white"/>
<path d="M23.1241 12.7013C23.6864 12.7013 24.2486 12.6804 24.8109 12.7117C25.2505 12.7326 25.5163 13.035 25.5367 13.6294C25.5776 14.8077 25.5878 15.9861 25.5367 17.154C25.506 17.8527 25.23 18.0404 24.5349 18.0404C24.126 18.0404 23.7273 18.0404 23.3183 18.0404C23.1752 18.0404 23.073 18.0195 23.0832 17.8318C23.0934 16.1425 23.0934 14.4532 23.1037 12.7638C23.0832 12.7638 23.0934 12.7534 23.1241 12.7013Z" fill="white"/>
<path d="M49.1515 37.937C49.0799 37.8849 48.9982 37.8327 48.947 37.7701C48.855 37.645 48.7937 37.4886 48.7017 37.3635C48.6608 37.3113 48.5586 37.2592 48.4972 37.2696C48.4461 37.28 48.395 37.3843 48.3848 37.4573C48.3643 37.6033 48.3643 37.7493 48.2723 37.9161C48.2417 37.8744 48.2008 37.8223 48.2008 37.7806C48.1906 37.4156 48.1906 37.0402 48.2008 36.6752C48.2008 36.6022 48.3132 36.4979 48.395 36.4771C48.5279 36.4458 48.6813 36.4667 48.8244 36.4667C49.0186 36.4771 49.2026 36.5292 49.2333 36.7691C49.264 36.988 49.2231 37.1758 48.9777 37.2383C48.9471 37.2487 48.9266 37.2696 48.8857 37.3113C48.9982 37.499 49.1106 37.6867 49.2128 37.8744C49.1924 37.8849 49.172 37.9161 49.1515 37.937ZM48.7221 37.1653C48.8346 37.061 49.0391 36.9568 49.0391 36.8421C49.0595 36.6022 48.8244 36.6126 48.6506 36.5918C48.4768 36.5709 48.3848 36.6439 48.3848 36.8421C48.3746 37.0506 48.4666 37.134 48.7221 37.1653Z" fill="white"/>
</svg>
