<svg width="63" height="63" viewBox="0 0 63 63" fill="none" xmlns="http://www.w3.org/2000/svg">
<path d="M31.5 63C48.897 63 63 48.897 63 31.5C63 14.103 48.897 0 31.5 0C14.103 0 0 14.103 0 31.5C0 48.897 14.103 63 31.5 63Z" fill="#00FEFF"/>
<path d="M36.9978 33.901C37.5435 31.118 36.9296 28.7852 34.8969 26.9708C30.8042 23.2874 24.5015 25.3337 23.2737 30.6951C22.387 34.5559 25.129 38.5258 29.058 39.0851C29.3036 39.126 29.5628 39.0988 29.7811 39.1806C30.163 39.317 30.6132 39.4125 30.8861 39.6854C32.4686 41.1997 33.9965 42.7685 35.5381 44.3101C35.9474 44.7194 36.1111 45.1832 35.8791 45.7289C35.6472 46.2473 35.2243 46.4519 34.6513 46.4519C33.1234 46.4383 31.6091 46.4383 30.0812 46.4519C27.38 46.4656 24.8698 45.7425 22.5916 44.3101C21.8958 43.8735 21.1864 43.5871 20.3815 43.5052C19.563 43.4097 18.9082 43.0277 18.3761 42.4138C17.0119 40.8313 16.0024 39.0715 15.3339 37.0933C15.1156 36.4522 15.061 35.7837 15.3475 35.1834C15.8387 34.1603 15.8387 33.1098 15.8387 32.0184C15.8523 28.4714 17.0664 25.361 19.3993 22.7007C20.6817 21.2547 22.196 20.0951 23.9285 19.2493C24.1877 19.1265 24.4742 18.9218 24.6243 18.6899C25.4974 17.2848 26.8343 16.8073 28.4032 16.6709C30.0266 16.5344 31.6364 16.589 33.2462 16.9164C33.9419 17.0528 34.5286 17.3803 34.9515 17.9396C35.5108 18.6899 36.2066 19.2083 37.0251 19.6585C40.7495 21.7867 43.1778 24.9244 44.0645 29.1535C44.3237 30.3677 44.3374 31.6501 44.3783 32.9052C44.3919 33.5054 44.4192 34.092 44.6784 34.6377C45.1695 35.6609 45.1423 36.6704 44.6648 37.6936C44.2964 38.4712 43.9281 39.2625 43.5325 40.0401C43.4097 40.2856 43.4097 40.4357 43.6143 40.6267C44.8694 41.8545 46.1108 43.0959 47.3386 44.3374C48.0344 45.0468 47.8161 46.1109 46.9294 46.3974C46.793 46.4383 46.6429 46.4519 46.5065 46.4519C44.351 46.4519 42.1819 46.4519 40.0264 46.4519C39.5762 46.4519 39.2079 46.2882 38.9077 45.9745C35.8791 42.9459 32.8642 39.9309 29.8356 36.9024C29.4946 36.5613 29.3445 36.152 29.3445 35.6882C29.3445 34.7059 29.3309 33.7101 29.3445 32.7278C29.3582 31.8411 29.8493 31.3636 30.736 31.3499C31.7046 31.3363 32.6732 31.3363 33.6554 31.3499C34.1739 31.3499 34.6104 31.5409 34.9651 31.9229C35.6472 32.5505 36.2884 33.178 36.9978 33.901ZM37.5708 36.5613C37.257 36.2884 36.9705 36.0429 36.7113 35.7837C35.8246 34.9106 34.9515 34.0238 34.0647 33.1507C33.9556 33.0416 33.8055 32.9188 33.6691 32.9188C32.796 32.8915 31.9093 32.9052 30.9816 32.9052C30.9816 33.8056 30.9679 34.6241 30.9952 35.4426C30.9952 35.6336 31.0907 35.8655 31.2272 36.002C34.1057 38.8805 36.9842 41.759 39.8763 44.6239C40.0264 44.7603 40.2719 44.8694 40.4766 44.8694C42.1 44.8831 43.7235 44.8831 45.3469 44.8694C45.4697 44.8694 45.5925 44.8558 45.7152 44.8558C45.7425 44.8149 45.7562 44.7876 45.7834 44.7467C45.6607 44.6648 45.5379 44.5966 45.4287 44.4874C44.2009 43.2733 43.0004 42.0455 41.759 40.845C41.4725 40.5585 41.4998 40.3811 41.6908 40.0537C42.2774 39.0442 42.7958 37.9937 43.3278 36.9569C43.628 36.3839 43.6007 35.811 43.3278 35.2107C43.0004 34.5013 42.7685 33.751 42.8776 32.9461C43.0277 31.7865 42.8913 30.6269 42.6457 29.4946C41.8135 25.702 39.6581 22.8508 36.2884 20.9682C35.3471 20.4361 34.5286 19.8359 33.8737 18.9764C33.6691 18.7036 33.2871 18.4853 32.9461 18.4171C31.3499 18.0351 29.7401 18.076 28.1167 18.2534C27.2572 18.3489 26.6024 18.6899 26.084 19.413C25.7566 19.8632 25.3337 20.2861 24.8426 20.5316C23.3556 21.2956 22.005 22.2233 20.8726 23.4511C18.3352 26.2068 17.2165 29.4537 17.4757 33.1917C17.503 33.6009 17.4212 34.0238 17.3257 34.4195C17.2438 34.7878 17.0119 35.1152 16.9573 35.4836C16.8891 35.8792 16.8209 36.3294 16.9437 36.6977C17.503 38.4303 18.417 39.9582 19.6039 41.3361C19.904 41.6771 20.2588 41.8818 20.7089 41.95C21.4729 42.0728 22.2505 42.141 22.9326 42.6185C24.1604 43.5052 25.5247 44.0782 26.9707 44.4738C29.2217 45.0741 31.5136 44.8558 33.7919 44.8831C33.8192 44.8831 33.8328 44.8558 33.9829 44.733C33.8192 44.6375 33.6691 44.5693 33.5463 44.4602C32.4686 43.3961 31.4045 42.3456 30.354 41.2542C29.9993 40.8859 29.6583 40.5994 29.0989 40.654C28.867 40.6813 28.6215 40.5858 28.3759 40.5312C23.7648 39.4671 20.9409 35.238 21.7321 30.586C22.537 25.8521 27.3391 22.6598 32.032 23.7376C36.6158 24.788 39.4671 29.099 38.6485 33.7101C38.4439 34.7059 38.0619 35.62 37.5708 36.5613Z" fill="black" stroke="black" stroke-width="0.4"/>
</svg>
