<svg width="478" height="60" viewBox="0 0 478 60" fill="none" xmlns="http://www.w3.org/2000/svg">
<path d="M135.267 59.8905C133.87 59.5622 132.473 59.4527 131.184 59.0149C128.176 57.9203 125.275 56.4974 122.374 55.2933C120.87 54.6366 119.366 54.1988 117.862 53.542C116.465 52.8853 114.746 52.338 113.994 51.2434C111.845 48.1786 110.019 44.7855 108.407 41.3923C107.87 40.2977 108.085 38.5464 108.407 37.3424C108.944 35.4816 109.266 33.7303 109.266 31.7601C109.266 19.9387 114.424 11.1821 124.523 5.38091C125.812 4.61471 126.994 3.6296 127.961 2.53503C129.25 1.00263 130.647 0.0175131 132.581 0.0175131C136.234 0.0175131 139.779 -0.091944 143.432 0.236427C144.722 0.345884 145.903 1.54991 146.978 2.42557C148.267 3.41068 149.342 4.72417 150.738 5.49037C161.16 11.62 166.317 20.5954 165.995 32.7452C165.995 33.9492 166.21 35.2627 166.639 36.3573C167.606 38.5464 167.606 40.6261 166.532 42.7058C165.78 44.2382 165.135 45.88 164.168 47.303C163.524 48.2881 163.738 48.8354 164.491 49.6016C167.069 52.1191 169.648 54.8555 172.226 57.373C173.086 58.2487 173.408 58.9054 172.441 59.8905C167.714 59.8905 162.986 59.8905 158.259 59.8905C157.722 59.4527 157.185 59.1243 156.647 58.6865C150.631 52.6664 144.722 46.6462 138.812 40.6261C138.275 40.0788 137.845 39.0937 137.738 38.218C137.631 36.3573 137.738 34.387 137.631 32.5263C137.631 31.5412 138.06 31.1033 139.027 31.1033C140.639 31.1033 142.358 31.2128 143.97 31.1033C145.474 30.9939 146.656 31.4317 147.622 32.6357C149.127 34.387 150.738 35.9194 152.565 37.8897C154.928 31.2128 154.284 25.4116 149.986 20.486C145.474 15.1226 139.564 13.3713 132.903 15.3415C125.597 17.4212 120.655 24.6454 121.192 32.0884C121.837 40.1883 127.639 46.4273 135.589 47.5219C136.556 47.6314 137.738 48.0692 138.49 48.7259C141.498 51.5718 144.399 54.6366 147.408 57.7014C148.16 58.4676 148.482 59.2338 147.622 60C143.54 59.8905 139.457 59.8905 135.267 59.8905Z" fill="white"/>
<path d="M390.007 59.8905C388.932 59.6716 387.751 59.4527 386.676 59.2338C377.329 57.2636 371.527 50.4772 371.312 40.845C371.097 29.1331 371.205 17.4212 371.205 5.70928C371.205 4.61471 371.527 3.95797 372.816 3.95797C376.362 3.95797 380.015 4.06742 383.56 3.95797C385.279 3.95797 385.172 5.05254 385.172 6.14711C385.172 16.4361 385.172 26.8345 385.172 37.1235C385.172 38.9842 385.387 40.845 385.817 42.5963C386.676 45.9895 388.932 47.4124 392.693 47.303C396.023 47.1935 397.957 45.5517 398.602 42.1585C398.817 40.845 398.924 39.5315 398.924 38.1086C398.924 27.4912 398.924 16.8739 398.924 6.25657C398.924 4.50525 399.354 3.84851 401.181 3.84851C404.511 3.95797 407.842 3.95797 411.173 3.84851C412.354 3.84851 412.892 4.28634 412.892 5.59982C412.784 17.0928 413.106 28.6953 412.677 40.1883C412.247 51.4623 406.23 57.8108 395.164 59.4527C394.842 59.4527 394.519 59.6716 394.09 59.7811C392.693 59.8905 391.296 59.8905 390.007 59.8905Z" fill="white"/>
<path d="M193.177 59.8906C191.888 59.6717 190.598 59.3433 189.309 59.1244C180.714 57.1542 174.805 50.2584 174.59 41.3923C174.375 29.571 174.482 17.6402 174.482 5.81879C174.482 4.39585 175.02 4.06748 176.309 4.06748C179.639 4.17694 182.97 4.17694 186.301 4.06748C187.912 4.06748 188.342 4.72422 188.342 6.25662C188.342 16.655 188.342 27.1629 188.342 37.5613C188.342 39.3127 188.557 41.1734 188.987 42.8153C189.846 46.2085 192.21 47.6314 196.078 47.4125C199.193 47.1936 201.127 45.4423 201.772 42.1585C201.987 40.7356 202.094 39.3127 202.094 37.9992C202.094 27.4913 202.202 16.9834 202.094 6.47554C202.094 4.61477 202.632 3.95802 204.458 4.06748C207.681 4.17694 211.012 4.17694 214.235 4.06748C215.309 4.06748 215.954 4.28639 215.954 5.59988C215.847 17.7496 216.062 29.7899 215.632 41.8302C215.202 51.6813 208.541 58.2487 198.871 59.5622C198.441 59.6717 198.012 59.7811 197.474 59.8906C196.078 59.8906 194.574 59.8906 193.177 59.8906Z" fill="white"/>
<path d="M478 31.3222C478 39.6409 478 48.0691 478 56.3879C478 58.6865 477.893 58.7959 475.636 58.7959C472.95 58.7959 470.157 58.7959 467.471 58.7959C466.074 58.7959 465.537 58.2486 465.537 56.8257C465.537 48.3975 465.537 39.9693 465.537 31.5411C465.537 31.1033 465.644 30.6654 465.537 30.2276C465.43 29.6803 465.43 28.8047 464.892 28.6952C464.355 28.5857 463.818 29.2425 463.496 29.6803C461.132 33.2924 458.876 36.9045 456.512 40.5166C454.686 43.3625 452.859 46.3178 450.925 49.1637C449.636 51.2434 449.206 51.2434 447.809 49.0542C443.834 42.8152 439.859 36.5761 435.884 30.3371C435.669 29.8992 435.346 29.4614 435.024 29.133C434.809 28.9141 434.272 28.5857 434.165 28.6952C433.842 28.8047 433.52 29.2425 433.52 29.6803C433.412 30.1181 433.52 30.6654 433.52 31.1033C433.52 39.422 433.52 47.8502 433.52 56.1689C433.52 58.577 433.412 58.6864 431.156 58.6864C428.47 58.6864 425.677 58.6864 422.991 58.6864C421.594 58.6864 421.057 58.2486 421.057 56.7162C421.057 39.7504 421.057 22.6751 421.057 5.70921C421.057 4.28627 421.594 3.84844 422.883 3.9579C425.784 4.06736 428.685 4.06736 431.586 3.9579C433.09 3.84844 433.95 4.50518 434.702 5.70921C439.107 12.7145 443.619 19.6103 448.024 26.6155C449.421 28.9141 449.636 28.9141 451.14 26.5061C455.653 19.6103 460.058 12.605 464.463 5.59976C465.215 4.39573 465.967 3.84844 467.363 3.9579C470.049 4.06736 472.843 3.9579 475.529 3.9579C478 3.9579 478 3.9579 478 6.36596C478 14.6847 478 23.0034 478 31.3222Z" fill="white"/>
<path d="M322.642 31.4316C322.642 39.7504 322.642 48.0691 322.642 56.2784C322.642 58.577 322.427 58.7959 320.171 58.6865C317.592 58.6865 314.906 58.577 312.328 58.6865C310.609 58.7959 309.642 58.1392 308.782 56.7162C303.195 47.9597 297.608 39.2031 291.914 30.4465C291.699 30.0087 291.484 29.5709 291.055 29.2425C290.84 29.0236 290.302 28.6952 289.98 28.8047C289.658 28.9141 289.55 29.4614 289.443 29.7898C289.336 30.2276 289.443 30.6654 289.443 31.1033C289.443 39.5315 289.443 47.9597 289.443 56.3879C289.443 58.6865 289.336 58.7959 287.079 58.7959C284.501 58.7959 282.03 58.7959 279.451 58.7959C276.98 58.7959 276.873 58.6865 276.873 56.2784C276.873 41.8301 276.873 27.3817 276.873 12.9334C276.873 10.7443 276.98 8.55512 276.873 6.25652C276.765 4.61466 277.302 3.95792 279.021 3.95792C281.6 4.06738 284.286 4.17683 286.864 3.95792C288.798 3.84846 289.873 4.61466 290.947 6.25652C296.427 15.0131 302.121 23.6602 307.708 32.4168C307.923 32.6357 308.03 32.964 308.245 33.183C308.675 33.5113 308.997 34.1681 309.534 33.9492C310.071 33.8397 310.179 32.964 310.179 32.5262C310.286 29.2425 310.179 26.0683 310.179 22.7845C310.179 17.2022 310.179 11.6199 310.179 6.03761C310.179 4.50521 310.609 3.95792 312.113 3.95792C314.906 4.06738 317.807 4.06738 320.708 3.95792C322.32 3.84846 322.749 4.61466 322.749 6.14706C322.642 14.5753 322.642 23.0035 322.642 31.4316Z" fill="white"/>
<path d="M224.442 58.6866C222.938 58.6866 221.433 58.6866 219.929 58.6866C217.995 58.6866 217.781 58.2488 218.425 56.4975C220.359 51.5719 222.4 46.6463 224.334 41.6113C229.062 29.7899 233.789 17.9686 238.516 6.1472C239.161 4.6148 239.913 3.8486 241.632 3.95806C243.781 4.06751 245.822 4.06751 247.971 3.95806C249.475 3.8486 250.12 4.50534 250.657 5.81883C256.137 19.6104 261.616 33.402 267.095 47.0842C268.385 50.2584 269.674 53.3232 270.856 56.4975C271.501 58.2488 271.286 58.5771 269.459 58.5771C266.451 58.5771 263.443 58.5771 260.327 58.5771C258.93 58.5771 258.285 58.0299 257.748 56.7164C253.988 47.3031 250.227 37.7803 246.467 28.367C246.252 27.8197 246.037 27.163 245.715 26.7251C245.393 26.1778 244.963 25.74 244.533 25.1927C244.103 25.74 243.566 26.1778 243.244 26.8346C239.269 36.6857 235.293 46.5369 231.425 56.388C230.781 58.1393 229.814 58.7961 227.987 58.5771C227.02 58.5771 225.731 58.6866 224.442 58.6866Z" fill="white"/>
<path d="M37.1742 58.4677C37.1742 40.2978 37.1742 22.2374 37.1742 4.0675C38.5709 4.0675 39.8602 4.0675 41.2569 4.0675C45.6619 4.0675 50.067 4.0675 54.5795 4.0675C59.844 4.0675 63.6044 7.8985 63.7118 13.2619C63.7118 15.7794 63.7118 18.2969 63.7118 20.8144C63.8193 24.536 62.53 27.6008 59.1994 29.7899C62.9598 31.1034 63.9267 33.8398 63.8193 37.4519C63.6044 41.8302 63.8193 46.2085 63.8193 50.4773C63.8193 54.8556 61.563 58.0298 57.2655 58.3582C50.6042 58.796 43.9429 58.4677 37.1742 58.4677ZM46.0917 32.198C46.0917 33.0736 46.0917 33.8398 46.0917 34.4966C46.0917 39.4221 46.0917 44.4572 46.0917 49.3827C46.0917 54.1988 46.0917 54.1989 50.8191 54.0894C53.3976 53.9799 54.3646 53.3232 54.472 50.8057C54.6869 45.8801 54.5795 41.064 54.5795 36.1384C54.5795 35.3722 54.472 34.606 54.1497 34.0587C53.6125 33.2925 52.8604 32.5263 52.0009 32.4169C50.067 32.0885 48.2405 32.198 46.0917 32.198ZM54.7943 18.1875C54.6869 16.2172 54.5795 14.3565 54.3646 12.4957C54.0423 10.0876 53.1827 9.32144 50.8191 9.21199C49.7447 9.21199 48.6703 9.32144 47.5959 9.21199C46.414 9.10253 45.9843 9.64982 46.0917 10.7444C46.1991 14.6848 46.0917 18.7348 46.0917 22.6752C46.0917 27.6008 46.0917 27.6008 50.9265 27.4913C53.2902 27.3819 54.1497 26.7251 54.3646 24.3171C54.6869 22.3468 54.6869 20.2672 54.7943 18.1875Z" fill="white"/>
<path d="M353.8 37.5614C353.8 43.8004 353.8 50.0395 353.8 56.388C353.8 58.6866 353.692 58.6866 351.436 58.796C348.428 58.796 345.527 58.796 342.518 58.796C339.94 58.796 339.94 58.796 339.94 56.0596C339.94 43.9099 339.94 31.7601 339.94 19.6104C339.94 16.4362 339.94 16.4362 336.717 16.4362C334.89 16.4362 333.064 16.4362 331.237 16.4362C329.84 16.4362 329.088 15.9983 329.196 14.4659C329.303 11.62 329.303 8.6647 329.196 5.81882C329.196 4.61479 329.626 4.0675 330.807 4.0675C341.444 4.0675 352.081 4.0675 362.825 4.0675C364.114 4.0675 364.544 4.61479 364.544 5.81882C364.544 8.6647 364.436 11.62 364.544 14.4659C364.544 15.8889 364.006 16.4362 362.61 16.4362C360.461 16.3267 358.205 16.5456 356.056 16.4362C354.122 16.3267 353.692 17.0929 353.692 18.8442C353.907 25.0833 353.8 31.3223 353.8 37.5614Z" fill="white"/>
<path d="M87.8858 41.283C90.8941 41.283 93.795 41.283 96.6958 41.283C96.6958 47.0842 96.6958 52.7759 96.6958 58.5772C87.8858 58.5772 79.0757 58.5772 70.1582 58.5772C70.1582 40.4073 70.1582 22.3469 70.1582 4.177C73.0591 4.177 75.8525 4.177 78.9683 4.177C78.9683 4.9432 78.9683 5.59994 78.9683 6.36614C78.9683 20.9239 78.9683 35.4817 78.9683 50.0395C78.9683 51.0246 79.0757 52.1192 79.5055 52.9949C80.365 54.8556 82.4063 55.7313 84.4477 55.184C86.3816 54.7462 87.7783 52.9949 87.8858 50.9152C87.9932 48.3977 87.8858 45.8802 87.8858 43.3626C87.8858 42.7059 87.8858 42.0492 87.8858 41.283Z" fill="white"/>
<path d="M21.7028 4.0675C24.6037 4.0675 27.3971 4.0675 30.4054 4.0675C30.4054 4.61479 30.5129 5.16208 30.5129 5.70936C30.5129 20.1577 30.5129 34.606 30.5129 49.0544C30.5129 53.6516 28.2566 56.9353 23.959 58.3582C19.4466 59.8906 14.7192 60.0001 10.3142 58.1393C6.01658 56.2785 3.65291 52.8854 3.76034 48.0693C3.76034 46.3179 3.76034 44.4572 3.76034 42.7059C3.76034 41.5018 4.08266 41.064 5.2645 41.064C7.30586 41.1735 9.23978 41.1735 11.2811 41.064C12.3555 41.064 12.7853 41.5018 12.7853 42.5964C12.6779 45.1139 12.7853 47.6314 12.7853 50.1489C12.7853 53.1043 14.5043 55.0745 16.9755 55.2934C19.554 55.5123 21.5954 53.5421 21.8102 50.5868C21.9177 49.1638 21.7028 47.6314 21.7028 46.2085C21.7028 32.7453 21.7028 19.282 21.7028 5.81882C21.5954 5.27153 21.5954 4.72425 21.7028 4.0675Z" fill="white"/>
<path d="M0 4.177C5.47943 4.177 10.744 4.177 16.3309 4.177C13.6449 10.3066 11.0663 16.4362 8.16543 23.0036C5.37199 16.5457 2.686 10.4161 0 4.177Z" fill="white"/>
<path d="M13.3227 30.1182C13.3227 33.0735 11.0664 35.4816 8.16554 35.3721C5.26466 35.3721 3.00842 32.9641 3.00842 30.0087C3.00842 27.1629 5.26466 24.8643 8.0581 24.8643C10.959 24.8643 13.3227 27.0534 13.3227 30.1182Z" fill="white"/>
</svg>
