<svg width="63" height="63" viewBox="0 0 63 63" fill="none" xmlns="http://www.w3.org/2000/svg">
<path d="M31.5 63C48.897 63 63 48.897 63 31.5C63 14.103 48.897 0 31.5 0C14.103 0 0 14.103 0 31.5C0 48.897 14.103 63 31.5 63Z" fill="#00FEFF"/>
<path d="M40.3538 44.2282C39.9991 44.2282 39.6171 44.2146 39.2352 44.2009L38.7031 44.1737C38.3893 44.16 38.1983 43.819 38.3484 43.5461L38.6076 43.0823C38.7713 42.7958 38.8941 42.5366 39.0032 42.3047C38.7168 42.7003 38.3075 43.1914 37.639 43.7917L37.5299 43.9008C37.4344 43.9827 37.3116 44.0236 37.1888 44.0099L37.0387 43.9827C33.9147 43.5461 30.2585 42.5229 26.1931 40.9404C25.0881 40.5039 23.9967 40.0128 22.8781 39.4398L22.4142 39.1942C22.1414 39.0442 22.1005 38.6622 22.3597 38.4712L22.7826 38.1574C22.8371 38.1165 22.8917 38.0756 22.9326 38.0483C22.6325 38.1983 22.2778 38.362 21.8413 38.5394L21.6912 38.6076C21.5684 38.6622 21.432 38.6485 21.3092 38.5803L21.1728 38.4985C18.1169 36.6568 15.4567 34.3376 13.2876 31.6228L12.8919 31.1316L12.4554 30.5314C8.48548 25.0472 7.73515 20.136 8.71739 18.6899C9.61778 17.3666 11.0093 17.7759 13.7923 18.5808C15.3066 19.0173 17.3802 19.6176 20.1905 20.2178L20.4634 20.2724C20.668 20.3133 20.8044 20.4907 20.8044 20.6953V20.9682C20.7908 21.5275 20.7362 21.9777 20.6817 22.3324C20.7908 22.0595 20.8999 21.7458 21.0091 21.3774L21.1046 21.0364C21.1728 20.7908 21.432 20.668 21.6639 20.7499L22.005 20.8727C25.3882 22.155 29.0989 23.6557 33.0415 25.361L33.2326 25.4428C33.3826 25.511 33.4917 25.6611 33.4917 25.8248V26.0431C33.519 26.8889 33.4508 27.4892 33.369 27.9666C33.5054 27.6119 33.6554 27.1754 33.7919 26.657L33.8874 26.275C33.9556 26.0158 34.2284 25.893 34.474 25.9885L34.8287 26.1522C46.0836 31.2271 50.7219 35.7018 49.003 39.8491C48.28 41.5271 46.2336 44.2282 40.3538 44.2282ZM40.9814 40.5994C40.9814 40.8449 40.9541 41.2406 40.804 41.7999C40.6676 42.2637 41.0496 42.7139 41.5271 42.6866C44.6375 42.4547 46.752 41.2679 47.5842 39.2761C48.8393 36.2475 44.8285 32.5232 35.6609 28.2258C35.3062 28.0621 34.8833 28.2258 34.7332 28.5942C34.2694 29.7538 33.7782 30.3268 33.5054 30.586C33.369 30.8179 33.1234 30.9679 32.8506 30.9816C32.2367 31.0089 31.841 30.395 31.7319 29.9857C31.5409 29.2899 31.65 28.7852 31.7592 28.2531C31.8274 27.9394 31.8956 27.5847 31.9365 27.0935C31.9638 26.7934 31.7865 26.5206 31.5136 26.3978C28.4441 25.0881 25.5247 23.9012 22.8098 22.8508C22.4688 22.7144 22.0732 22.8917 21.9368 23.2191C21.5002 24.215 21.0636 24.7334 20.8044 24.979C20.668 25.2109 20.4225 25.361 20.1496 25.3746C19.5221 25.4019 19.1401 24.788 19.0309 24.3787C18.84 23.683 18.9491 23.1782 19.0582 22.6462C19.0992 22.4415 19.1401 22.2369 19.181 21.9913C19.2083 21.7731 19.0719 21.5684 18.8536 21.5138C16.4935 20.9682 14.7063 20.4634 13.3558 20.0678C10.9957 19.3857 10.2044 19.1947 9.9452 19.5766C9.63142 20.095 9.69964 23.8876 13.2193 29.0307C13.2466 29.0035 13.2739 28.9762 13.3012 28.9625C13.6695 28.6624 14.0106 28.3623 14.6654 28.1576C15.0747 28.0212 15.8387 27.953 16.1388 28.526C16.2479 28.7306 16.2616 29.0035 16.1388 29.249C16.0569 29.5764 15.8523 30.0948 15.2657 30.7906C15.061 31.0362 15.061 31.4454 15.2793 31.6773C17.0119 33.6555 19.031 35.3744 21.2956 36.8205C21.5002 36.9433 21.7594 36.9569 21.9777 36.8614C22.7144 36.5203 23.11 36.2339 23.4374 35.9883C23.833 35.7018 24.215 35.429 24.8835 35.2789C25.2928 35.1834 26.0567 35.1834 26.3159 35.7837C26.3978 35.9883 26.4114 36.2748 26.2613 36.5203C26.1659 36.8341 25.9203 37.3116 25.3337 37.9664C25.0063 38.3211 25.1154 38.8805 25.552 39.0714C25.9476 39.2488 26.3432 39.4125 26.7388 39.5626C30.395 40.9814 33.6827 41.9363 36.534 42.4002C36.7659 42.4411 36.9978 42.3592 37.1479 42.1955C37.6117 41.7044 37.8709 41.3224 38.0892 41.0087C38.3893 40.5585 38.6758 40.1355 39.317 39.7808C39.699 39.5626 40.4084 39.4261 40.8176 39.89C40.9813 40.0673 41.0496 40.3402 40.9814 40.5994ZM39.6035 40.0264C39.5898 40.04 39.5762 40.0673 39.5626 40.081L39.6035 40.0264Z" fill="black" stroke="black"/>
<path d="M56.2608 39.5216C56.2471 39.9445 55.8788 40.2719 55.4422 40.2447C52.1817 39.9718 39.6717 38.7167 32.2094 35.238C26.5615 32.5914 18.0488 27.7211 15.6341 26.3296C15.2657 26.1249 15.1566 25.6611 15.3612 25.2927C15.5659 24.938 16.0297 24.8153 16.3844 25.0199C18.7718 26.3978 27.2436 31.2544 32.8369 33.8737C39.9719 37.2161 52.3727 37.8982 55.5513 38.021C55.9742 38.0346 56.288 38.3893 56.2744 38.8122L56.2608 39.5216Z" fill="black" stroke="black"/>
</svg>
