<svg width="63" height="63" viewBox="0 0 63 63" fill="none" xmlns="http://www.w3.org/2000/svg">
<path d="M31.5 63C48.897 63 63 48.897 63 31.5C63 14.103 48.897 0 31.5 0C14.103 0 0 14.103 0 31.5C0 48.897 14.103 63 31.5 63Z" fill="#00FEFF"/>
<path d="M50.0945 31.5C50.0945 24.0104 45.6334 17.2847 38.7441 14.3653L38.1984 15.6477C44.583 18.3488 48.7029 24.5697 48.7029 31.5C48.7029 31.9775 48.6757 32.4549 48.6347 32.9461H40.9951H40.1356H39.6035C39.6035 33.369 39.6036 32.605 39.549 33.0279C39.1124 35.8655 37.1752 38.3075 34.5013 39.3989L35.0197 40.6812C37.7891 39.5489 39.8764 37.1752 40.6676 34.3239H49.8898V34.1193C50.0262 33.2598 50.0945 32.3731 50.0945 31.5Z" fill="black" stroke="black"/>
<path d="M31.5 14.2971C31.8683 14.2971 32.264 14.2971 32.6596 14.2971V23.5875H32.7414V23.6011C35.5245 24.0513 37.9391 25.9612 39.0169 28.5805L40.2992 28.0485C39.1669 25.3337 36.8341 23.2737 34.0511 22.4824V14.3926C34.0647 14.3926 34.0647 14.3926 34.0784 14.3926V13.1102C33.1916 12.9874 32.414 12.9192 31.5136 12.9192C24.024 12.9192 17.2984 17.3802 14.3926 24.2696L15.675 24.8153C18.3625 18.4171 24.5834 14.2971 31.5 14.2971Z" fill="black" stroke="black"/>
<path d="M14.3108 31.5C14.3108 31.0634 14.3381 30.6132 14.3654 30.1767H23.301V30.0812H23.3147C23.874 27.3254 25.8658 25.0063 28.4988 24.0104L28.0076 22.7144C25.2519 23.7375 23.1237 26.0158 22.2233 28.7852H13.0148V29.5355C12.9466 30.1903 12.9056 30.8451 12.9056 31.5C12.9056 38.8122 17.2166 45.4697 23.8877 48.471L24.4606 47.2022C18.2943 44.4192 14.3108 38.2665 14.3108 31.5Z" fill="black" stroke="black"/>
<path d="M31.5 48.6892C31.118 48.6892 30.736 48.6756 30.3541 48.6483V39.8763H30.0676C27.1754 39.4125 24.7334 37.4344 23.683 34.6923L22.387 35.197C23.5056 38.1165 25.9749 40.2856 28.9625 41.0632V49.958H29.5901V49.9716C30.2176 50.0398 30.8588 50.0671 31.5 50.0671C38.9214 50.0671 45.6197 45.6606 48.5665 38.8532L47.2841 38.2938C44.5693 44.6238 38.3757 48.6892 31.5 48.6892Z" fill="black" stroke="black"/>
<path d="M27.0254 31.5C27.0254 33.9147 28.9899 35.8655 31.3909 35.8655C33.792 35.8655 35.7564 33.901 35.7564 31.5C35.7564 29.0989 33.792 27.1345 31.3909 27.1345C28.9899 27.1345 27.0254 29.0853 27.0254 31.5ZM34.3786 31.5C34.3786 33.1371 33.0416 34.474 31.4046 34.474C29.7675 34.474 28.4306 33.1371 28.4306 31.5C28.4306 29.8629 29.7675 28.526 31.4046 28.526C33.0416 28.5123 34.3786 29.8493 34.3786 31.5Z" fill="black" stroke="black"/>
</svg>
