<svg width="63" height="63" viewBox="0 0 63 63" fill="none" xmlns="http://www.w3.org/2000/svg">
<path d="M31.5 63C48.897 63 63 48.897 63 31.5C63 14.103 48.897 0 31.5 0C14.103 0 0 14.103 0 31.5C0 48.897 14.103 63 31.5 63Z" fill="#00FEFF"/>
<path d="M49.8761 30.2176C49.3304 19.5357 41.2541 11.0366 31.4044 11.0366C21.5411 11.0366 13.4648 19.563 12.9328 30.2722C11.705 30.5041 10.7637 31.5818 10.7637 32.8779V38.3484C10.7637 39.8218 11.9505 41.0087 13.4239 41.0087H14.5971C16.0705 41.0087 17.2574 39.8218 17.2574 38.3484V32.8779C17.2574 31.4045 16.0705 30.2176 14.5971 30.2176H14.5835C15.1292 20.4498 22.4687 12.6873 31.4044 12.6873C40.3401 12.6873 47.6797 20.4634 48.2253 30.2313C46.8202 30.2995 45.6879 31.4454 45.6879 32.8779V38.3484C45.6879 39.0169 45.9334 39.6171 46.3427 40.081C44.119 44.8148 40.1218 48.3618 35.197 49.6169C34.7195 47.9253 33.1779 46.6702 31.3362 46.6702C29.1262 46.6702 27.3117 48.471 27.3117 50.6947C27.3117 52.9047 29.1125 54.7191 31.3362 54.7191C33.3553 54.7191 35.006 53.2185 35.2925 51.2949C40.7903 50.0125 45.265 46.1518 47.7479 40.9541C47.9389 40.995 48.1298 41.0223 48.3345 41.0223H49.8078C51.2812 41.0223 52.4681 39.8354 52.4681 38.3621V32.8915C52.4817 31.4181 51.3085 30.2449 49.8761 30.2176ZM31.3362 53.0548C30.0266 53.0548 28.9625 51.9907 28.9625 50.681C28.9625 49.3714 30.0266 48.3073 31.3362 48.3073C32.6459 48.3073 33.71 49.3714 33.71 50.681C33.71 51.9907 32.6459 53.0548 31.3362 53.0548Z" fill="black" stroke="black"/>
</svg>
