<svg width="63" height="63" viewBox="0 0 63 63" fill="none" xmlns="http://www.w3.org/2000/svg">
<path d="M31.5 63C48.897 63 63 48.897 63 31.5C63 14.103 48.897 0 31.5 0C14.103 0 0 14.103 0 31.5C0 48.897 14.103 63 31.5 63Z" fill="#FD00F0"/>
<path d="M31.5 50.0125C26.5479 50.0125 21.8822 48.089 18.3762 44.5966C14.8701 41.1041 12.9465 36.4521 12.9465 31.5C12.9465 26.5478 14.8701 21.9095 18.3762 18.4034C21.8822 14.911 26.5342 12.9874 31.5 12.9874C36.4522 12.9874 41.1178 14.911 44.6239 18.4034C48.13 21.8958 50.0535 26.5478 50.0535 31.5C50.0535 36.4521 48.13 41.0905 44.6239 44.5966C41.1178 48.089 36.4522 50.0125 31.5 50.0125ZM31.5 14.0106C26.8207 14.0106 22.4143 15.825 19.1128 19.1264C15.7978 22.4279 13.9833 26.8207 13.9833 31.4863C13.9833 36.152 15.8114 40.5448 19.1128 43.8462C22.4279 47.1477 26.8207 48.9621 31.5 48.9621C36.1793 48.9621 40.5858 47.1477 43.8872 43.8462C47.2023 40.5448 49.0167 36.152 49.0167 31.4863C49.0167 26.8207 47.1886 22.4279 43.8872 19.1264C40.5721 15.8387 36.1793 14.0106 31.5 14.0106Z" fill="white"/>
<path d="M41.2269 44.4192C40.3538 44.4192 39.3989 44.3237 38.3757 44.1327C34.6104 43.4233 30.354 41.4725 26.3705 38.6213C23.4783 36.5613 20.9545 34.1602 19.0719 31.7046C17.2029 29.2763 16.0433 26.9025 15.7022 24.8289C15.4294 23.1373 15.6886 21.7185 16.4935 20.5998C18.3625 18.0078 22.7689 17.9532 28.3077 19.945L27.953 20.4361C22.9599 18.6353 18.8809 19.0446 17.3257 21.2137C16.6845 22.1005 16.4799 23.2601 16.7118 24.6652C17.3666 28.6488 21.3911 33.7919 26.9708 37.7891C30.8315 40.5448 34.9378 42.4411 38.5667 43.1232C40.2993 43.4506 41.7999 43.4779 43.055 43.2051C44.2964 42.9459 45.2105 42.4002 45.7971 41.5816C46.9567 39.9582 46.4656 37.7345 45.8517 36.152C44.9376 33.8328 43.6553 31.309 41.2269 28.8807L41.4043 28.335C43.9417 30.8724 45.838 33.328 46.8066 35.7837C47.8298 38.3893 47.7752 40.613 46.6293 42.1955C45.5925 43.6552 43.7098 44.4192 41.2269 44.4192Z" fill="white"/>
<path d="M46.2609 20.5043C45.2787 19.1947 43.6007 18.4443 41.4043 18.3625C39.3579 18.2806 37.448 18.7718 34.8287 19.7813L34.8969 19.9586C35.2243 20.1496 34.9242 19.9723 35.238 20.1769C39.9582 18.5126 43.9008 19.0446 45.4287 21.1046C46.0836 21.9777 46.3018 23.1373 46.0972 24.5561C45.5106 28.5396 41.568 33.7646 36.0565 37.8436C32.2503 40.6676 28.1576 42.6184 24.5561 43.3688C22.8371 43.7235 21.3229 43.778 20.0678 43.5325C18.8263 43.2869 17.8986 42.7549 17.2984 41.95C16.1115 40.3538 16.5617 38.1438 17.1483 36.5613C18.0078 34.2421 19.3447 31.7183 21.7048 29.249L21.3229 28.717C18.8672 31.2817 17.0801 33.751 16.1797 36.1929C15.2111 38.7986 15.3203 41.0087 16.4662 42.5502C17.5167 43.969 19.3447 44.6921 21.7321 44.6921C22.6598 44.6921 23.6693 44.5829 24.7607 44.3647C28.5123 43.6007 32.7414 41.568 36.6704 38.6622C39.5216 36.5476 42.0045 34.1193 43.8599 31.6364C45.6879 29.1808 46.8066 26.7934 47.1204 24.7061C47.3659 23.0281 47.0795 21.6093 46.2609 20.5043Z" fill="white"/>
<path d="M40.0264 28.1713C40.0264 26.3296 39.0714 24.2559 37.4889 22.6189C35.8109 20.8999 33.6964 19.9177 31.65 19.9177C29.6037 19.9177 27.4618 20.8999 25.7566 22.6189C24.1604 24.2287 23.1918 26.2613 23.1645 28.0621C23.1645 28.1303 23.1236 28.4305 23.2737 28.3213C23.2737 28.3213 23.2737 28.3486 23.2737 28.3759C23.3419 28.3077 23.4374 28.2804 23.5329 28.2804V28.2395C23.5329 28.2395 23.4783 28.1167 23.4374 28.0485C23.4237 28.0212 23.4101 27.9803 23.4101 27.9393C23.4919 26.2341 24.4196 24.3241 25.9339 22.7962C27.5846 21.1182 29.6719 20.1633 31.65 20.1633C33.6281 20.1633 35.6881 21.1182 37.3116 22.7962C38.8122 24.3378 39.7262 26.2613 39.7808 27.9939L38.3757 27.2709C38.3484 25.6884 37.6526 24.2423 36.4657 23.0281C35.1834 21.7321 33.4781 21.0091 31.6637 21.0091C30.1221 21.0091 28.676 21.5138 27.4755 22.4688C26.3432 23.3555 25.5246 24.5834 25.1563 25.9203C25.0881 26.1522 25.0335 26.3978 25.0062 26.6433C24.9653 26.8889 24.9517 27.1345 24.938 27.38C24.9517 27.4073 25.0472 27.6256 25.0472 27.6256C25.1563 28.2258 25.4019 29.6173 25.8248 30.2313V33.9965C25.7975 33.9965 25.7702 33.9965 25.7566 33.9965C25.7702 34.0784 25.7566 34.1602 25.7156 34.2421C25.7566 34.2421 25.7975 34.2421 25.8384 34.2421C25.8793 34.7196 26.0703 35.1698 26.4114 35.5244L29.1398 38.3757C29.5218 38.7713 30.0675 39.0032 30.6132 39.0032H32.5913C33.1234 39.0032 33.6418 38.7986 34.0238 38.4166L36.7932 35.6745C37.1751 35.3062 37.3934 34.7878 37.4071 34.2557C37.448 34.2557 37.5025 34.2557 37.5435 34.2557C37.5435 34.2421 37.5435 34.2421 37.5298 34.2284C37.5162 34.1602 37.5025 34.0784 37.5025 34.0102C37.4753 34.0102 37.4343 34.0102 37.4071 34.0102V30.1358C37.789 29.5491 38.1164 27.8984 38.2665 27.3391L39.5489 28.0894C39.6171 28.0485 40.0264 28.3077 40.04 28.3213C40.0264 28.294 40.04 28.1713 40.0264 28.1713ZM37.1615 34.9788C37.1615 34.665 36.9569 35.1425 36.6158 35.4972L33.8328 38.2393C33.4917 38.5803 33.0415 38.7577 32.564 38.7577H30.5859C30.0948 38.7577 29.631 38.553 29.2899 38.1983L26.5614 35.3471C26.234 35.006 26.043 34.5422 26.043 34.8696V29.1399C26.043 27.9666 26.1522 27.5983 26.3568 27.2982L26.9707 26.3978C27.3118 25.893 27.8711 25.6065 28.4577 25.6065H34.815C35.4562 25.6065 36.0701 25.9612 36.3839 26.5342L36.9023 27.4482C37.0524 27.7211 37.1478 28.0485 37.1478 29.1672V34.9788H37.1615ZM37.4071 29.6583V28.3623C37.4071 27.9939 37.3116 27.6392 37.1342 27.3254L36.6158 26.4114C36.343 25.9339 35.9064 25.5929 35.4016 25.4428C35.8791 25.2382 36.2065 24.8426 36.2065 24.3787C36.2065 23.9967 35.9746 23.642 35.5653 23.4101L35.4289 23.3283L35.388 23.4783C35.2652 23.9285 34.7059 24.2559 34.0647 24.2559V24.5015C34.7468 24.5015 35.3471 24.1741 35.5653 23.6966C35.8109 23.874 35.961 24.1195 35.961 24.3787C35.961 24.9108 35.3607 25.3473 34.6104 25.3473H28.4577C27.7756 25.3473 27.1481 25.6884 26.7661 26.2477L26.1522 27.1481C25.9203 27.5028 25.7975 27.8984 25.7975 28.3213V29.7538C25.3336 28.9762 25.1563 27.4346 25.2245 26.657C25.2654 26.4251 25.3064 26.1931 25.3746 25.9749C25.7293 24.6925 26.5205 23.5056 27.6119 22.6461C28.7715 21.7185 30.1766 21.241 31.65 21.241C33.3962 21.241 35.0469 21.9367 36.2747 23.1782C37.2297 24.1468 37.8572 25.361 38.0482 26.616C38.0619 27.3391 37.83 28.8943 37.4071 29.6583Z" fill="white" stroke="white" stroke-width="0.7" stroke-miterlimit="10"/>
<path d="M25.8248 29.972V34.0374H24.8289L22.6871 32.1957V28.8397L24.8153 27.4209H25.0881C25.0745 27.3664 25.0745 27.2982 25.0745 27.2436H24.7607L22.4961 28.7442V32.2776L24.7471 34.2284H25.9885V30.0539C25.9339 30.0403 25.8794 30.013 25.8248 29.972Z" fill="white" stroke="white" stroke-width="0.7" stroke-miterlimit="10"/>
<path d="M38.4849 27.2299H38.1984C38.1711 27.2845 38.1574 27.3527 38.1302 27.4073H38.4303L40.5585 28.8261V32.1957L38.4166 34.0511H37.4208V29.7811C37.3798 29.8629 37.3116 29.9038 37.2434 29.9038V34.2284H38.4849L40.7358 32.2776V28.7442L38.4849 27.2299Z" fill="white" stroke="white" stroke-width="0.7" stroke-miterlimit="10"/>
<path d="M23.5056 28.2122H23.3282V30.4632H23.5056V28.2122Z" fill="white" stroke="white" stroke-width="0.7" stroke-miterlimit="10"/>
<path d="M39.9173 28.2122H39.74V30.4632H39.9173V28.2122Z" fill="white" stroke="white" stroke-width="0.7" stroke-miterlimit="10"/>
</svg>
